# Blender v2.83.2 OBJ File: ''
# www.blender.org
o 円柱
v -0.200053 0.000000 0.000000
v 0.189107 -0.000000 0.000000
v -0.200053 0.000000 -0.046948
v 0.139059 -0.000000 -0.038476
v -0.200053 -0.033197 -0.033197
v 0.139059 -0.027207 -0.027207
v -0.200053 -0.046948 0.000000
v 0.139059 -0.038476 0.000000
v -0.200053 -0.033197 0.033197
v 0.139059 -0.027207 0.027207
v -0.200053 0.000000 0.046948
v 0.139059 0.000000 0.038476
v -0.200053 0.033197 0.033197
v 0.139059 0.027207 0.027207
v -0.200053 0.046948 -0.000000
v 0.139059 0.038476 -0.000000
v -0.200053 0.033197 -0.033197
v 0.139059 0.027207 -0.027207
v 0.093253 -0.000000 -0.046948
v 0.093253 -0.033197 -0.033197
v 0.093253 -0.046948 0.000000
v 0.093253 -0.033197 0.033197
v 0.093253 0.000000 0.046948
v 0.093253 0.033197 0.033197
v 0.093253 0.046948 -0.000000
v 0.093253 0.033197 -0.033197
vt 0.868720 0.131280
vt 0.814387 0.262451
vt 0.737549 0.185613
vt 0.737549 0.076947
vt 0.814387 0.000109
vt 0.923053 0.000109
vt 0.999891 0.076947
vt 0.999891 0.185613
vt 0.923053 0.262451
vt 0.737332 0.736398
vt 0.581990 0.855656
vt 0.581990 0.743240
vt 0.450464 0.741459
vt 0.450464 0.863131
vt 0.581990 0.970864
vt 0.450464 0.994800
vt 0.737332 0.265872
vt 0.581990 0.144665
vt 0.581990 0.028690
vt 0.450464 0.125923
vt 0.450464 0.003493
vt 0.581990 0.254906
vt 0.450464 0.243318
vt 0.581990 0.365963
vt 0.450464 0.362487
vt 0.581990 0.482711
vt 0.450464 0.492731
vt 0.581990 0.629022
vt 0.581990 0.505709
vt 0.450464 0.620285
vt 0.003042 0.741521
vt 0.003042 0.616049
vt 0.003042 0.493138
vt 0.003042 0.368716
vt 0.003042 0.245627
vt 0.003042 0.123762
vt 0.003042 0.004506
vt 0.003042 0.995560
vt 0.003042 0.867987
vn -1.0000 0.0000 0.0000
vn 1.0000 0.0000 0.0000
vn 0.3871 -0.6520 -0.6520
vn 0.3871 0.0000 -0.9220
vn 0.0894 0.0000 -0.9960
vn 0.0894 -0.7043 -0.7043
vn 0.3871 -0.9220 0.0000
vn 0.0894 -0.9960 0.0000
vn 0.3871 -0.6520 0.6520
vn 0.0894 -0.7043 0.7043
vn 0.3871 0.0000 0.9220
vn 0.0894 0.0000 0.9960
vn 0.3871 0.6520 0.6520
vn 0.0894 0.7043 0.7043
vn 0.3871 0.9220 0.0000
vn 0.0894 0.9960 0.0000
vn 0.3871 0.6520 -0.6520
vn 0.0894 0.7043 -0.7043
vn -0.6302 0.0000 -0.7764
vn -0.6302 0.5490 -0.5490
vn -0.6302 0.7764 0.0000
vn -0.6302 0.5490 0.5490
vn -0.6302 0.0000 0.7764
vn -0.6302 -0.5490 0.5490
vn -0.6302 -0.7764 0.0000
vn -0.6302 -0.5490 -0.5490
s off
f 1/1/1 3/2/1 5/3/1
f 1/1/1 5/3/1 7/4/1
f 1/1/1 7/4/1 9/5/1
f 1/1/1 9/5/1 11/6/1
f 1/1/1 11/6/1 13/7/1
f 1/1/1 13/7/1 15/8/1
f 1/1/1 15/8/1 17/9/1
f 1/1/1 17/9/1 3/2/1
s 1
f 2/10/2 6/11/3 4/12/4
f 19/13/5 6/11/3 20/14/6
f 2/10/2 8/15/7 6/11/3
f 6/11/3 21/16/8 20/14/6
f 2/17/2 10/18/9 8/19/7
f 8/19/7 22/20/10 21/21/8
f 2/17/2 12/22/11 10/18/9
f 10/18/9 23/23/12 22/20/10
f 2/17/2 14/24/13 12/22/11
f 23/23/12 14/24/13 24/25/14
f 2/17/2 16/26/15 14/24/13
f 14/24/13 25/27/16 24/25/14
f 2/10/2 18/28/17 16/29/15
f 25/27/16 18/28/17 26/30/18
f 2/10/2 4/12/4 18/28/17
f 18/28/17 19/13/5 26/30/18
f 26/30/18 3/31/19 17/32/20
f 25/27/16 17/32/20 15/33/21
f 24/25/14 15/33/21 13/34/22
f 23/23/12 13/34/22 11/35/23
f 22/20/10 11/35/23 9/36/24
f 21/21/8 9/36/24 7/37/25
f 20/14/6 7/38/25 5/39/26
f 19/13/5 5/39/26 3/31/19
f 19/13/5 4/12/4 6/11/3
f 6/11/3 8/15/7 21/16/8
f 8/19/7 10/18/9 22/20/10
f 10/18/9 12/22/11 23/23/12
f 23/23/12 12/22/11 14/24/13
f 14/24/13 16/26/15 25/27/16
f 25/27/16 16/29/15 18/28/17
f 18/28/17 4/12/4 19/13/5
f 26/30/18 19/13/5 3/31/19
f 25/27/16 26/30/18 17/32/20
f 24/25/14 25/27/16 15/33/21
f 23/23/12 24/25/14 13/34/22
f 22/20/10 23/23/12 11/35/23
f 21/21/8 22/20/10 9/36/24
f 20/14/6 21/16/8 7/38/25
f 19/13/5 20/14/6 5/39/26
