#
# Ground.obj
#

v -20  0  20
v -10  0  20
v   0  0  20
v  10  0  20
v  20  0  20
v -20  0  10
v -10  0  10
v   0  0  10
v  10  0  10
v  20  0  10
v -20  0  0
v -10  0  0
v   0  0  0
v  10  0  0
v  20  0  0
v -20  0 -10
v -10  0 -10
v   0  0 -10
v  10  0 -10
v  20  0 -10
v -20  0 -20
v -10  0 -20
v   0  0 -20
v  10  0 -20
v  20  0 -20

vt -4.0 -4.0
vt -2.0 -4.0
vt  0.0 -4.0
vt  2.0 -4.0
vt  4.0 -4.0
vt -4.0 -2.0
vt -2.0 -2.0
vt  0.0 -2.0
vt  2.0 -2.0
vt  4.0 -2.0
vt -4.0  0.0
vt -2.0  0.0
vt  0.0  0.0
vt  2.0  0.0
vt  4.0  0.0
vt -4.0  2.0
vt -2.0  2.0
vt  0.0  2.0
vt  2.0  2.0
vt  4.0  2.0
vt -4.0  4.0
vt -2.0  4.0
vt  0.0  4.0
vt  2.0  4.0
vt  4.0  4.0

vn  0.0  1.0  0.0

f 1/1/1 2/2/1 7/7/1
f 7/7/1 6/6/1 1/1/1
f 2/2/1 3/3/1 8/8/1
f 8/8/1 7/7/1 2/2/1
f 3/3/1 4/4/1 9/9/1
f 9/9/1 8/8/1 3/3/1
f 4/4/1 5/5/1 10/10/1 
f 10/10/1 9/9/1 4/4/1

f  6/6/1  7/7/1 12/12/1
f 12/12/1 11/11/1  6/6/1
f  7/7/1  8/8/1 13/13/1
f 13/13/1 12/12/1  7/7/1
f  8/8/1  9/9/1 14/14/1
f 14/14/1 13/13/1  8/8/1
f  9/9/1 10/10/1 15/15/1
f 15/15/1 14/14/1  9/9/1

f 11/11/1 12/12/1 17/17/1
f 17/17/1 16/16/1 11/11/1
f 12/12/1 13/13/1 18/18/1
f 18/18/1 17/17/1 12/12/1
f 13/13/1 14/14/1 19/19/1
f 19/19/1 18/18/1 13/13/1
f 14/14/1 15/15/1 20/20/1 
f 20/20/1 19/19/1 14/14/1

f 16/16/1 17/17/1 22/22/1
f 22/22/1 21/21/1 16/16/1
f 17/17/1 18/18/1 23/23/1
f 23/23/1 22/22/1 17/17/1
f 18/18/1 19/19/1 24/24/1
f 24/24/1 23/23/1 18/18/1
f 19/19/1 20/20/1 25/25/1
f 25/25/1 24/24/1 19/19/1

