#
# House.obj
#

v  2.8  0.0  3.0
v  3.0  4.0  3.0
v  0.0  6.0  3.0
v -3.0  4.0  3.0
v -2.8  0.0  3.0
v -2.8  0.0 -3.0
v -3.0  4.0 -3.0
v  0.0  6.0 -3.0
v  3.0  4.0 -3.0
v  2.8  0.0 -3.0
v  2.8  0.0  3.0
v  3.0  4.0  3.0
v  0.0  6.0  3.0
v  0.0  6.0 -3.0
v  0.0  6.0 -3.0
v  0.0  6.0  3.0

vt 1.000 0.00
vt 1.000 0.69
vt 0.875 1.00
vt 0.750 0.69
vt 0.750 0.00
vt 0.500 0.00
vt 0.500 0.69
vt 0.375 1.00
vt 0.250 0.69
vt 0.250 0.00
vt 0.000 0.00
vt 0.000 0.69
vt 0.750 1.00
vt 0.500 1.00
vt 0.250 1.00
vt 0.000 1.00

vn  0.7  0.0  0.7
vn  0.7  0.0  0.7
vn  0.0  0.7  0.7
vn -0.7  0.0  0.7
vn -0.7  0.0  0.7
vn -0.7  0.0 -0.7
vn -0.7  0.0 -0.7
vn  0.0  0.7 -0.7
vn  0.7  0.0 -0.7
vn  0.7  0.0 -0.7
vn  0.7  0.0  0.7
vn  0.7  0.0  0.7
vn  0.0  1.0  0.0
vn  0.0  1.0 -0.0
vn  0.0  1.0 -0.0
vn  0.0  1.0  0.0

f 1/1/1    2/2/2    4/4/4
f 4/4/4    5/5/5    1/1/1
f 2/2/2    3/3/3    4/4/4
f 5/5/5    4/4/4    7/7/7
f 7/7/7    6/6/6    5/5/5
f 4/4/4    13/13/13 14/14/14
f 14/14/14 7/7/7    4/4/4
f 6/6/6    7/7/7    9/9/9
f 9/9/9    10/10/10 6/6/6
f 7/7/7    8/8/8    9/9/9
f 10/10/10 9/9/9    12/12/12
f 12/12/12 11/11/11 10/10/10
f 9/9/9    15/15/15 16/16/16
f 16/16/16 12/12/12 9/9/9

