# Blender v2.83.2 OBJ File: ''
# www.blender.org

v 0.000000 0.000000 -0.100000
v 0.061237 -0.070711 -0.035355
v 0.000000 -0.070711 -0.070711
v 0.000000 -0.100000 0.000000
v 0.061237 0.060487 -0.035355
v 0.086603 0.000000 -0.050000
v 0.061237 -0.070711 0.035355
v 0.086603 0.000000 0.050000
v 0.000000 -0.070711 0.070711
v -0.000000 0.060487 0.070711
v 0.000000 0.000000 0.100000
v -0.061237 -0.070711 0.035355
v -0.086603 -0.000000 0.050000
v -0.061237 -0.070711 -0.035355
v -0.061237 0.060487 0.035355
v -0.086603 -0.000000 -0.050000
v -0.000000 0.073267 0.000000
v 0.061237 0.060487 0.035355
v -0.061237 0.060487 -0.035355
v -0.000000 0.095887 -0.025000
v 0.021651 0.065349 -0.012500
v -0.000000 0.065349 -0.025000
v 0.021651 0.095887 -0.012500
v 0.021651 0.065349 0.012500
v 0.021651 0.095887 0.012500
v -0.000000 0.065349 0.025000
v -0.000000 0.095887 0.025000
v -0.021651 0.065349 0.012500
v -0.021651 0.095887 0.012500
v 0.000074 0.119365 0.012500
v -0.021651 0.065349 -0.012500
v -0.021651 0.095887 -0.012500
v -0.019580 0.139974 0.012500
v 0.024905 0.141749 -0.012500
v -0.019580 0.139974 -0.012500
v 0.021651 0.095887 -0.012500
v 0.021166 0.129374 0.012500
v 0.021651 0.095887 0.012500
v 0.021166 0.129374 -0.012500
v 0.024905 0.141749 0.012500
v -0.021651 0.095887 0.012500
v 0.000074 0.119365 0.012500
v -0.019580 0.139974 0.012500
v 0.021166 0.129374 -0.012500
v -0.019580 0.139974 -0.012500
v 0.024905 0.141749 -0.012500
v 0.000074 0.119365 -0.012500
v 0.021651 0.095887 -0.012500
v 0.000074 0.119365 -0.012500
v -0.021651 0.095887 0.012500
v -0.047387 0.095887 -0.012500
v -0.021651 0.095887 -0.012500
v -0.047387 0.095887 0.012500
v -0.047387 0.095887 -0.012500
v -0.047387 0.095887 0.012500
v -0.047387 0.095887 -0.012500
v -0.021651 0.095887 -0.012500
v 0.021651 0.095887 0.012500
v 0.021166 0.129374 0.012500
v 0.024905 0.141749 0.012500
v -0.000000 0.060487 -0.070711
v 0.024905 0.141749 0.012500
v 0.024905 0.141749 -0.012500
v -0.047387 0.095887 0.012500

vt 0.666667 0.375000
vt 0.500000 0.187500
vt 0.666667 0.187500
vt 0.581816 0.007507
vt 0.500000 0.562500
vt 0.500000 0.375000
vt 0.413113 0.007507
vt 0.333333 0.187500
vt 0.333333 0.375000
vt 0.166667 0.187500
vt 0.240896 0.007507
vt 0.166667 0.562500
vt 0.166667 0.375000
vt 0.005000 0.187500
vt 0.083333 0.007507
vt 0.005000 0.375000
vt 0.995000 0.375000
vt 0.833333 0.187500
vt 0.995000 0.187500
vt 0.916667 0.007506
vt 0.995000 0.562500
vt 0.833333 0.375000
vt 0.420220 0.750000
vt 0.333333 0.562500
vt 0.746986 0.007506
vt 0.833333 0.562500
vt 0.173779 0.775571
vt 0.247653 0.859721
vt 0.173779 0.859721
vt 0.247653 0.775571
vt 0.321527 0.859721
vt 0.321527 0.775571
vt 0.395401 0.859721
vt 0.395401 0.775571
vt 0.469275 0.859721
vt 0.572612 0.781081
vt 0.637243 0.781081
vt 0.637243 0.876460
vt 0.026031 0.775571
vt 0.099905 0.859721
vt 0.026031 0.859721
vt 0.099905 0.775571
vt 0.193843 0.971171
vt 0.037201 0.900124
vt 0.193843 0.900124
vt 0.777733 0.781081
vt 0.703230 0.924697
vt 0.703230 0.781081
vt 0.777733 0.924697
vt 0.703230 0.976267
vt 0.572612 0.781081
vt 0.637243 0.876460
vt 0.572612 0.952480
vt 0.777733 0.924697
vt 0.908375 0.952480
vt 0.777733 0.976267
vt 0.777733 0.781081
vt 0.843560 0.781081
vt 0.843560 0.876460
vt 0.703230 0.781081
vt 0.777733 0.781081
vt 0.843560 0.876460
vt 0.467792 0.971171
vt 0.377241 0.900124
vt 0.467792 0.900124
vt 0.497488 0.781081
vt 0.377241 0.900124
vt 0.377241 0.971171
vt 0.983409 0.781081
vt 0.908375 0.781081
vt 0.703230 0.781081
vt 0.703230 0.924697
vt 0.908375 0.781081
vt 0.703230 0.976267
vt 0.259104 0.750000
vt 0.916667 0.750000
vt 0.753014 0.750000
vt 0.666667 0.562500
vt 0.083333 0.750000
vt 0.005000 0.562500
vt 0.584851 0.750000
vt 0.469275 0.775571
vt 0.037201 0.971171
vt 0.777733 0.976267
vt 0.377241 0.971171

vn -0.0000 0.0259 -0.9997
vn 0.6579 -0.6503 -0.3798
vn 0.0000 -0.6503 -0.7597
vn 0.0000 -1.0000 0.0000
vn 0.5920 0.7299 -0.3418
vn 0.8657 0.0259 -0.4998
vn 0.6579 -0.6503 0.3798
vn 0.8657 0.0259 0.4998
vn -0.0000 -0.6503 0.7597
vn -0.0000 0.7299 0.6835
vn -0.0000 0.0259 0.9997
vn -0.6579 -0.6503 0.3798
vn -0.8657 0.0259 0.4998
vn -0.6579 -0.6503 -0.3798
vn -0.5920 0.7299 0.3418
vn -0.8657 0.0259 -0.4998
vn -0.0000 1.0000 0.0000
vn 0.5920 0.7299 0.3418
vn -0.5920 0.7299 -0.3418
vn -0.0003 0.2258 -0.9742
vn 0.8660 0.0000 -0.5000
vn 0.0000 -0.0000 -1.0000
vn 0.7929 0.1123 -0.5989
vn 0.8660 0.0000 0.5000
vn 0.7929 0.1123 0.5989
vn 0.0000 -0.0000 1.0000
vn -0.0003 0.2258 0.9742
vn -0.8660 -0.0000 0.5000
vn -0.7931 0.1127 0.5985
vn 0.0010 0.4700 0.8827
vn -0.8660 -0.0000 -0.5000
vn -0.7931 0.1127 -0.5985
vn -0.5003 0.8658 0.0000
vn -0.0399 0.9992 0.0000
vn 0.9999 0.0145 0.0000
vn 0.9903 -0.1390 0.0000
vn 0.9573 -0.2892 0.0000
vn 0.0010 0.4700 -0.8827
vn -0.8458 0.5335 0.0000
vn -0.0000 0.7299 -0.6835

f 1/1/1 2/2/2 3/3/3
f 4/4/4 3/3/3 2/2/2
f 1/1/1 5/5/5 6/6/6
f 4/7/4 2/2/2 7/8/7
f 5/5/5 8/9/8 6/6/6
f 6/6/6 7/8/7 2/2/2
f 8/9/8 9/10/9 7/8/7
f 4/11/4 7/8/7 9/10/9
f 8/9/8 10/12/10 11/13/11
f 11/13/11 12/14/12 9/10/9
f 4/15/4 9/10/9 12/14/12
f 10/12/10 13/16/13 11/13/11
f 13/17/13 14/18/14 12/19/12
f 4/20/4 12/19/12 14/18/14
f 15/21/15 16/22/16 13/17/13
f 14/18/14 1/1/1 3/3/3
f 5/5/5 17/23/17 18/24/18
f 4/25/4 14/18/14 3/3/3
f 19/26/19 1/1/1 16/22/16
f 20/27/20 21/28/21 22/29/22
f 23/30/23 24/31/24 21/28/21
f 25/32/25 26/33/26 24/31/24
f 27/34/27 28/35/28 26/33/26
f 29/36/29 27/37/27 30/38/30
f 29/39/29 31/40/31 28/41/28
f 32/42/32 22/29/22 31/40/31
f 33/43/33 34/44/34 35/45/33
f 36/46/35 37/47/36 38/48/35
f 39/49/36 40/50/37 37/47/36
f 41/51/26 42/52/26 43/53/26
f 44/54/22 45/55/22 46/56/22
f 23/57/23 20/58/20 47/59/38
f 25/60/25 30/38/30 27/37/27
f 48/61/22 49/62/22 44/54/22
f 50/63/4 51/64/4 52/65/4
f 41/51/26 43/53/26 53/66/26
f 33/43/33 54/67/39 55/68/39
f 56/69/22 45/55/22 57/70/22
f 42/52/26 58/71/26 59/72/26
f 32/73/32 47/59/38 20/58/20
f 45/55/22 49/62/22 57/70/22
f 43/53/26 59/72/26 60/74/26
f 59/72/26 43/53/26 42/52/26
f 45/55/22 44/54/22 49/62/22
f 18/24/18 17/75/17 10/12/10
f 15/21/15 17/76/17 19/26/19
f 17/77/17 61/78/40 19/26/19
f 10/12/10 17/79/17 15/80/15
f 61/78/40 17/81/17 5/5/5
f 1/1/1 6/6/6 2/2/2
f 1/1/1 61/78/40 5/5/5
f 5/5/5 18/24/18 8/9/8
f 6/6/6 8/9/8 7/8/7
f 8/9/8 11/13/11 9/10/9
f 8/9/8 18/24/18 10/12/10
f 11/13/11 13/16/13 12/14/12
f 10/12/10 15/80/15 13/16/13
f 13/17/13 16/22/16 14/18/14
f 15/21/15 19/26/19 16/22/16
f 14/18/14 16/22/16 1/1/1
f 19/26/19 61/78/40 1/1/1
f 20/27/20 23/30/23 21/28/21
f 23/30/23 25/32/25 24/31/24
f 25/32/25 27/34/27 26/33/26
f 27/34/27 29/82/29 28/35/28
f 29/39/29 32/42/32 31/40/31
f 32/42/32 20/27/20 22/29/22
f 33/43/33 62/83/34 34/44/34
f 36/46/35 39/49/36 37/47/36
f 39/49/36 63/84/37 40/50/37
f 50/63/4 64/85/4 51/64/4
f 33/43/33 35/45/33 54/67/39
