# Blender v2.83.2 OBJ File: ''
# www.blender.org

v -0.196232 0.447309 0.043612
v 0.041693 0.616891 0.043612
v -0.212935 0.616891 0.043612
v 0.053503 0.496985 -0.046578
v -0.212935 0.616891 -0.046577
v 0.041693 0.616891 -0.046578
v -0.146767 0.284245 0.043612
v 0.053503 0.496985 0.043612
v 0.088478 0.381687 -0.046578
v -0.196232 0.447309 -0.046577
v 0.145275 0.275427 0.043612
v 0.088478 0.381687 0.043612
v 0.145275 0.275427 -0.046578
v -0.146767 0.284245 -0.046577
v -0.066440 0.133963 0.043612
v 0.221711 0.182290 0.043612
v 0.041662 0.002241 -0.046578
v -0.066440 0.133963 -0.046578
v 0.041693 0.616891 0.043612
v -0.212935 0.616891 -0.046577
v -0.212935 0.616891 0.043612
v -0.212935 0.616891 0.043612
v -0.196232 0.447309 -0.046577
v -0.196232 0.447309 0.043612
v -0.146767 0.284245 -0.046577
v -0.146767 0.284245 0.043612
v -0.066440 0.133963 -0.046578
v -0.066440 0.133963 0.043612
v 0.041662 0.002241 -0.046578
v 0.041662 0.002241 0.043612
v 0.041662 0.002241 -0.046578
v 0.221711 0.182290 0.043612
v 0.041662 0.002241 0.043612
v 0.053503 0.496985 -0.046578
v 0.041693 0.616891 0.043612
v 0.053503 0.496985 0.043612
v 0.088478 0.381687 -0.046578
v 0.088478 0.381687 0.043612
v 0.145275 0.275427 -0.046578
v 0.145275 0.275427 0.043612
v 0.221711 0.182290 -0.046578
v 0.221711 0.182290 0.043612
v 0.041662 0.002241 0.043612
v 0.221711 0.182290 -0.046578
v 0.041693 0.616891 -0.046578
v -0.212935 0.616891 -0.046577
v 0.221711 0.182290 -0.046578
v 0.041693 0.616891 -0.046578

vt 0.405000 0.300000
vt 0.005000 0.100000
vt 0.405000 0.100000
vt 0.900000 0.300000
vt 0.500000 0.100000
vt 0.900000 0.100000
vt 0.405000 0.500000
vt 0.005000 0.300000
vt 0.900000 0.500000
vt 0.500000 0.300000
vt 0.005000 0.700000
vt 0.005000 0.500000
vt 0.900000 0.700000
vt 0.500000 0.500000
vt 0.405000 0.700000
vt 0.005000 0.900000
vt 0.500000 0.900000
vt 0.500000 0.700000
vt 0.900000 0.004741
vt 0.500000 0.100000
vt 0.500000 0.004741
vt 0.405000 0.100000
vt 0.500000 0.300000
vt 0.405000 0.300000
vt 0.500000 0.500000
vt 0.405000 0.500000
vt 0.500000 0.700000
vt 0.405000 0.700000
vt 0.500000 0.900000
vt 0.405000 0.900000
vt 0.500000 0.900000
vt 0.900000 0.994707
vt 0.500000 0.994707
vt 0.900000 0.300000
vt 0.995000 0.100000
vt 0.995000 0.300000
vt 0.900000 0.500000
vt 0.995000 0.500000
vt 0.900000 0.700000
vt 0.995000 0.700000
vt 0.900000 0.900000
vt 0.995000 0.900000
vt 0.405000 0.900000
vt 0.900000 0.900000
vt 0.900000 0.100000
vt 0.500000 0.100000
vt 0.900000 0.900000
vt 0.900000 0.100000

vn -0.0000 0.0000 1.0000
vn -0.0000 -0.0000 -1.0000
vn -0.0000 1.0000 0.0000
vn -0.9952 -0.0980 0.0000
vn -0.9808 -0.1951 0.0000
vn -0.9239 -0.3827 0.0000
vn -0.8315 -0.5556 0.0000
vn -0.7730 -0.6344 0.0000
vn 0.7071 -0.7071 0.0000
vn 0.9808 0.1951 0.0000
vn 0.9952 0.0980 0.0000
vn 0.9239 0.3827 0.0000
vn 0.8315 0.5556 0.0000
vn 0.7730 0.6344 0.0000

f 1/1/1 2/2/1 3/3/1
f 4/4/2 5/5/2 6/6/2
f 7/7/1 8/8/1 1/1/1
f 9/9/2 10/10/2 4/4/2
f 7/7/1 11/11/1 12/12/1
f 13/13/2 14/14/2 9/9/2
f 15/15/1 16/16/1 11/11/1
f 13/13/2 17/17/2 18/18/2
f 19/19/3 20/20/3 21/21/3
f 22/22/4 23/23/5 24/24/5
f 24/24/5 25/25/6 26/26/6
f 26/26/6 27/27/7 28/28/7
f 28/28/7 29/29/8 30/30/8
f 31/31/9 32/32/9 33/33/9
f 34/34/10 35/35/11 36/36/10
f 37/37/12 36/36/10 38/38/12
f 39/39/13 38/38/12 40/40/13
f 41/41/14 40/40/13 42/42/14
f 1/1/1 8/8/1 2/2/1
f 4/4/2 10/10/2 5/5/2
f 7/7/1 12/12/1 8/8/1
f 9/9/2 14/14/2 10/10/2
f 7/7/1 15/15/1 11/11/1
f 13/13/2 18/18/2 14/14/2
f 15/15/1 43/43/1 16/16/1
f 13/13/2 44/44/2 17/17/2
f 19/19/3 45/45/3 20/20/3
f 22/22/4 46/46/4 23/23/5
f 24/24/5 23/23/5 25/25/6
f 26/26/6 25/25/6 27/27/7
f 28/28/7 27/27/7 29/29/8
f 31/31/9 47/47/9 32/32/9
f 34/34/10 48/48/11 35/35/11
f 37/37/12 34/34/10 36/36/10
f 39/39/13 37/37/12 38/38/12
f 41/41/14 39/39/13 40/40/13
