# Blender v2.91.0 OBJ File: 'street_lamp.blend'
# www.blender.org
o StreetLamp.B_Cube.002
v 0.000000 1.831795 0.017678
v 0.000000 2.071825 0.017678
v -0.017678 1.831795 0.000000
v -0.017678 2.071825 0.000000
v 0.017678 1.831795 0.000000
v 0.017678 2.071825 0.000000
v 0.000000 1.831795 -0.017678
v 0.000000 2.071825 -0.017678
v -0.098316 1.855304 -0.056782
v 0.000027 1.854159 -0.113564
v -0.098316 1.855304 0.056782
v 0.000027 1.854159 0.113564
v 0.098370 1.853015 0.056782
v 0.098370 1.853015 -0.056782
v 0.000027 1.780139 -0.038416
v 0.033293 1.779752 -0.019208
v 0.033293 1.779752 0.019208
v 0.000027 1.780139 0.038416
v -0.033240 1.780527 0.019208
v -0.033240 1.780527 -0.019208
v 0.000005 -0.104206 -0.094795
v 0.082100 -0.104206 -0.047397
v 0.082100 -0.104206 0.047398
v 0.000005 -0.104206 0.094795
v -0.082090 -0.104206 0.047397
v -0.082090 -0.104206 -0.047397
v 0.000005 0.443878 -0.096039
v 0.083178 0.443878 -0.048020
v 0.083178 0.443878 0.048020
v 0.000005 0.443878 0.096039
v -0.083167 0.443878 0.048020
v -0.083167 0.443878 -0.048020
v 0.000005 0.468191 -0.038416
v 0.033274 0.468191 -0.019208
v 0.033274 0.468191 0.019208
v 0.000005 0.468191 0.038416
v -0.033264 0.468191 0.019208
v -0.033264 0.468191 -0.019208
v -0.000000 1.800202 -0.000000
v 0.144576 1.910646 0.105039
v -0.055222 1.910646 0.169958
v -0.178705 1.910647 -0.000000
v -0.055222 1.910646 -0.169958
v 0.144576 1.910646 -0.105039
v 0.055222 2.089354 0.169958
v -0.144576 2.089354 0.105039
v -0.144576 2.089354 -0.105039
v 0.055222 2.089354 -0.169958
v 0.178705 2.089353 -0.000000
v -0.000000 2.199798 -0.000000
v -0.032458 1.830041 0.099898
v 0.084979 1.830041 0.061740
v 0.052521 1.894958 0.161639
v 0.169958 1.894959 -0.000000
v 0.084979 1.830041 -0.061740
v -0.105040 1.830041 -0.000000
v -0.137499 1.894959 0.099899
v -0.032458 1.830041 -0.099898
v -0.137499 1.894959 -0.099899
v 0.052521 1.894958 -0.161639
v 0.190020 2.000000 0.061740
v 0.190020 2.000000 -0.061740
v -0.000000 2.000000 0.199798
v 0.117439 2.000000 0.161640
v -0.190020 2.000000 0.061740
v -0.117439 2.000000 0.161640
v -0.117439 2.000000 -0.161640
v -0.190020 2.000000 -0.061740
v 0.117439 2.000000 -0.161640
v -0.000000 2.000000 -0.199798
v 0.137499 2.105041 0.099899
v -0.052521 2.105042 0.161639
v -0.169958 2.105041 -0.000000
v -0.052521 2.105042 -0.161639
v 0.137499 2.105041 -0.099899
v 0.032458 2.169959 0.099898
v 0.105040 2.169959 -0.000000
v -0.084979 2.169959 0.061740
v -0.084979 2.169959 -0.061740
v 0.032458 2.169959 -0.099898
v 0.000027 1.825929 -0.113564
v 0.098370 1.824785 -0.056782
v 0.098370 1.824785 0.056782
v 0.000027 1.825929 0.113564
v -0.098316 1.827074 0.056782
v -0.098316 1.827074 -0.056782
v 0.033293 1.759226 -0.019208
v 0.033293 1.759226 0.019208
v 0.000026 1.759607 0.038416
v -0.033240 1.759988 0.019208
v -0.033240 1.759988 -0.019208
v 0.000026 1.759607 -0.038416
v 0.033275 0.498748 -0.019208
v 0.033275 0.498748 0.019208
v 0.000006 0.498757 0.038416
v -0.033263 0.498766 0.019208
v -0.033263 0.498766 -0.019208
v 0.000006 0.498757 -0.038416
v 0.083109 0.402761 -0.047980
v 0.083109 0.402761 0.047980
v 0.000005 0.402761 0.095960
v -0.083099 0.402761 0.047980
v -0.083099 0.402761 -0.047980
v 0.000005 0.402761 -0.095960
v -0.098316 1.855304 -0.056782
v 0.000027 1.854159 -0.113564
v -0.098316 1.855304 0.056782
v 0.000027 1.854159 0.113564
v 0.098370 1.853015 0.056782
v 0.098370 1.853015 -0.056782
vt 0.101671 0.669844
vt 0.077982 0.556921
vt 0.101671 0.556921
vt 0.077982 0.669844
vt 0.054292 0.556921
vt 0.054292 0.669844
vt 0.030603 0.556921
vt 0.030603 0.669844
vt 0.006914 0.556921
vt 0.006914 0.681605
vt 0.030603 0.681605
vt 0.438655 0.558064
vt 0.365494 0.558064
vt 0.438655 0.620899
vt 0.365494 0.620899
vt 0.329420 0.589496
vt 0.475312 0.589496
vt 0.166667 0.144791
vt 0.083333 0.135609
vt 0.166667 0.135609
vt 0.250000 0.135609
vt 0.333333 0.135609
vt 0.250000 0.144791
vt 0.416667 0.144791
vt 0.416667 0.135609
vt 0.499829 0.144791
vt 0.499829 0.135609
vt 0.083333 0.144791
vt -0.000000 0.135609
vt 0.083333 0.159779
vt 0.250000 0.159779
vt 0.333333 0.159779
vt 0.333333 0.144791
vt 0.416667 0.159779
vt -0.000000 0.159779
vt -0.000000 0.144791
vt 0.166667 0.539796
vt 0.083333 0.545838
vt 0.083333 0.539796
vt 0.250000 0.545838
vt 0.250000 0.539796
vt 0.333333 0.545838
vt 0.333333 0.539796
vt 0.416667 0.545838
vt 0.416667 0.539796
vt 0.501196 0.545838
vt 0.501174 0.539796
vt -0.000000 0.545838
vt -0.000000 0.539796
vt 0.501529 0.875763
vt 0.475035 0.893997
vt 0.458660 0.868799
vt 0.443542 0.915670
vt 0.501529 0.920360
vt 0.501529 0.853226
vt 0.544398 0.868799
vt 0.528023 0.893997
vt 0.451068 0.953504
vt 0.407703 0.860520
vt 0.416701 0.889544
vt 0.338064 0.875790
vt 0.501529 0.826436
vt 0.449102 0.839683
vt 0.450964 0.798039
vt 0.595355 0.860520
vt 0.553956 0.839683
vt 0.633743 0.827700
vt 0.559516 0.915670
vt 0.586357 0.889544
vt 0.633807 0.923782
vt 0.369251 0.923782
vt 0.369315 0.827700
vt 0.552094 0.798039
vt 0.664994 0.875790
vt 0.551990 0.953504
vt 0.407511 0.704865
vt 0.448995 0.683985
vt 0.458572 0.713160
vt 0.443423 0.760127
vt 0.416527 0.733949
vt 0.474980 0.738410
vt 0.559635 0.760128
vt 0.501529 0.764827
vt 0.528077 0.738410
vt 0.595547 0.704865
vt 0.586531 0.733949
vt 0.544486 0.713160
vt 0.501529 0.670710
vt 0.554063 0.683985
vt 0.501529 0.697555
vt 0.501529 0.720139
vt 0.552197 0.642256
vt 0.634014 0.671977
vt 0.665329 0.720166
vt 0.634078 0.768257
vt 0.368980 0.768257
vt 0.337729 0.720166
vt 0.369044 0.671977
vt 0.450861 0.642256
vt 0.902819 0.538112
vt 0.961820 0.547662
vt 0.913446 0.547662
vt 0.926890 0.577839
vt 0.902819 0.557231
vt 0.870650 0.547662
vt 0.857477 0.577839
vt 0.822944 0.547662
vt 0.857477 0.517081
vt 0.926890 0.517081
vt 0.881516 0.557231
vt 0.881516 0.538112
vt 0.844807 0.588237
vt 0.798196 0.547662
vt 0.083333 0.168773
vt -0.000000 0.168773
vt 0.939334 0.507050
vt 0.844807 0.507050
vt 0.986699 0.547662
vt 0.939334 0.588237
vt 0.416667 0.168773
vt 0.499861 0.168773
vt 0.333333 0.168773
vt 0.250000 0.168773
vt 0.166667 0.168773
vt 0.166667 0.159779
vt 0.499829 0.159779
vt -0.000000 0.000000
vt 0.083333 0.000000
vt 0.416667 0.000000
vt 0.499829 0.000000
vt 0.333333 0.000000
vt 0.250000 0.000000
vt 0.166667 0.000000
vt 0.006914 0.669844
vt 0.166667 0.545838
vn 0.0000 0.5773 0.8165
vn -1.0000 0.0000 0.0000
vn 0.0000 0.0000 1.0000
vn -0.8165 0.5773 0.0000
vn 0.0000 0.0000 -1.0000
vn 0.0000 0.5773 -0.8165
vn 1.0000 0.0000 0.0000
vn 0.8165 0.5773 0.0000
vn 0.0116 0.9999 0.0000
vn -0.7582 0.4833 -0.4377
vn 0.0000 -0.0021 -1.0000
vn -0.8660 -0.0021 -0.5000
vn -0.8660 -0.0021 0.5000
vn 0.0000 -0.0021 1.0000
vn -0.7582 0.4833 0.4377
vn 0.7582 0.4833 0.4377
vn 0.8660 -0.0021 0.5000
vn 0.7582 0.4833 -0.4377
vn 0.8660 -0.0021 -0.5000
vn 0.0000 0.4833 -0.8755
vn 0.0000 0.6529 -0.7575
vn -0.6560 0.6529 0.3787
vn 0.0000 0.6529 0.7575
vn 0.0000 0.4833 0.8755
vn 0.6560 0.6529 0.3787
vn 0.6560 0.6529 -0.3787
vn -0.8660 0.0000 -0.5000
vn -0.0073 -0.5714 -0.8206
vn -0.7142 -0.5686 0.4081
vn -0.8660 0.0000 0.5000
vn -0.0073 -0.5714 0.8206
vn 0.7071 -0.5742 0.4125
vn 0.8660 0.0000 0.5000
vn 0.7071 -0.5742 -0.4125
vn 0.8660 0.0000 -0.5000
vn 0.0000 -1.0000 0.0000
vn 0.4253 -0.8506 0.3090
vn -0.1625 -0.8506 0.5000
vn 0.7236 -0.4472 0.5257
vn 0.8506 -0.5257 0.0000
vn -0.5257 -0.8506 0.0000
vn -0.1625 -0.8506 -0.5000
vn 0.4253 -0.8506 -0.3090
vn 0.9510 0.0000 0.3090
vn -0.2764 -0.4472 0.8506
vn 0.2629 -0.5257 0.8090
vn -0.8944 -0.4472 0.0000
vn -0.6882 -0.5257 0.5000
vn -0.9510 0.0000 0.3090
vn -0.2764 -0.4472 -0.8506
vn -0.6882 -0.5257 -0.5000
vn -0.5878 0.0000 -0.8090
vn 0.7236 -0.4472 -0.5257
vn 0.2629 -0.5257 -0.8090
vn 0.5878 0.0000 -0.8090
vn 0.5878 0.0000 0.8090
vn -0.5878 0.0000 0.8090
vn -0.9510 0.0000 -0.3090
vn 0.9510 0.0000 -0.3090
vn 0.2764 0.4472 0.8506
vn 0.6882 0.5257 0.5000
vn 0.1625 0.8506 0.5000
vn -0.7236 0.4472 0.5257
vn -0.2629 0.5257 0.8090
vn -0.4253 0.8506 0.3090
vn -0.7236 0.4472 -0.5257
vn -0.8506 0.5257 0.0000
vn -0.4253 0.8506 -0.3090
vn 0.2764 0.4472 -0.8506
vn -0.2629 0.5257 -0.8090
vn 0.1625 0.8506 -0.5000
vn 0.8944 0.4472 0.0000
vn 0.6882 0.5257 -0.5000
vn 0.5257 0.8506 0.0000
vn 0.0000 1.0000 0.0000
vn -0.7142 -0.5686 -0.4081
vn -0.0030 -0.4330 -0.9014
vn 0.7783 -0.4367 -0.4511
vn 0.7783 -0.4367 0.4511
vn -0.0030 -0.4330 0.9014
vn -0.7829 -0.4293 0.4502
vn -0.7829 -0.4293 -0.4502
vn 0.8651 0.0000 0.5016
vn -0.0037 0.0000 1.0000
vn -0.8669 0.0000 -0.4984
vn -0.8669 0.0000 0.4984
vn -0.0037 0.0000 -1.0000
vn 0.8651 0.0000 -0.5016
vn -0.6560 0.6529 -0.3787
vn 0.8660 -0.0023 -0.5000
vn 0.0000 -0.0023 -1.0000
vn 0.8660 -0.0023 0.5000
vn 0.0000 -0.0023 1.0000
vn -0.8660 -0.0023 0.5000
vn -0.8660 -0.0023 -0.5000
s 1
f 2/1/1 3/2/2 1/3/3
f 4/4/4 7/5/5 3/2/2
f 8/6/6 5/7/7 7/5/5
f 6/8/8 1/9/3 5/7/7
f 4/10/4 6/8/8 8/11/6
f 9/12/9 11/13/9 14/14/9
f 14/14/9 11/13/9 13/15/9
f 13/15/9 11/13/9 12/16/9
f 14/14/9 10/17/9 9/12/9
f 32/18/10 104/19/11 103/20/12
f 102/21/13 32/18/10 103/20/12
f 101/22/14 31/23/15 102/21/13
f 29/24/16 101/22/14 100/25/17
f 28/26/18 100/25/17 99/27/19
f 27/28/20 99/29/19 104/19/11
f 32/18/10 33/30/21 27/28/20
f 37/31/22 32/18/10 31/23/15
f 36/32/23 31/23/15 30/33/24
f 35/34/25 30/33/24 29/24/16
f 28/26/18 35/34/25 29/24/16
f 27/28/20 34/35/26 28/36/18
f 91/37/27 15/38/28 92/39/5
f 19/40/29 91/37/27 90/41/30
f 18/42/31 90/41/30 89/43/3
f 17/44/32 89/43/3 88/45/33
f 16/46/34 88/45/33 87/47/35
f 92/39/5 16/48/34 87/49/35
f 39/50/36 52/51/37 51/52/38
f 40/53/39 52/51/37 54/54/40
f 39/50/36 51/52/38 56/55/41
f 39/50/36 56/55/41 58/56/42
f 39/50/36 58/56/42 55/57/43
f 40/53/39 54/54/40 61/58/44
f 41/59/45 53/60/46 63/61/3
f 42/62/47 57/63/48 65/64/49
f 43/65/50 59/66/51 67/67/52
f 44/68/53 60/69/54 69/70/55
f 40/53/39 61/58/44 64/71/56
f 41/59/45 63/61/3 66/72/57
f 42/62/47 65/64/49 68/73/58
f 43/65/50 67/67/52 70/74/5
f 44/68/53 69/70/55 62/75/59
f 45/76/60 71/77/61 76/78/62
f 46/79/63 72/80/64 78/81/65
f 47/82/66 73/83/67 79/84/68
f 48/85/69 74/86/70 80/87/71
f 49/88/72 75/89/73 77/90/74
f 77/90/74 80/87/71 50/91/75
f 77/90/74 75/89/73 80/87/71
f 75/89/73 48/85/69 80/87/71
f 80/87/71 79/84/68 50/91/75
f 80/87/71 74/86/70 79/84/68
f 74/86/70 47/82/66 79/84/68
f 79/84/68 78/81/65 50/91/75
f 79/84/68 73/83/67 78/81/65
f 73/83/67 46/79/63 78/81/65
f 78/81/65 76/78/62 50/91/75
f 78/81/65 72/80/64 76/78/62
f 72/80/64 45/76/60 76/78/62
f 76/78/62 77/90/74 50/91/75
f 76/78/62 71/77/61 77/90/74
f 71/77/61 49/88/72 77/90/74
f 62/92/59 75/89/73 49/88/72
f 62/92/59 69/93/55 75/89/73
f 69/93/55 48/85/69 75/89/73
f 70/94/5 74/86/70 48/85/69
f 70/94/5 67/95/52 74/86/70
f 67/95/52 47/82/66 74/86/70
f 68/73/58 73/83/67 47/82/66
f 68/73/58 65/64/49 73/83/67
f 65/64/49 46/79/63 73/83/67
f 66/96/57 72/80/64 46/79/63
f 66/96/57 63/97/3 72/80/64
f 63/97/3 45/76/60 72/80/64
f 64/98/56 71/77/61 45/76/60
f 64/98/56 61/99/44 71/77/61
f 61/99/44 49/88/72 71/77/61
f 69/93/55 70/94/5 48/85/69
f 69/70/55 60/69/54 70/74/5
f 60/69/54 43/65/50 70/74/5
f 67/95/52 68/73/58 47/82/66
f 67/67/52 59/66/51 68/73/58
f 59/66/51 42/62/47 68/73/58
f 65/64/49 66/96/57 46/79/63
f 65/64/49 57/63/48 66/72/57
f 57/63/48 41/59/45 66/72/57
f 63/97/3 64/98/56 45/76/60
f 63/61/3 53/60/46 64/71/56
f 53/60/46 40/53/39 64/71/56
f 61/99/44 62/92/59 49/88/72
f 61/58/44 54/54/40 62/75/59
f 54/54/40 44/68/53 62/75/59
f 55/57/43 60/69/54 44/68/53
f 55/57/43 58/56/42 60/69/54
f 58/56/42 43/65/50 60/69/54
f 58/56/42 59/66/51 43/65/50
f 58/56/42 56/55/41 59/66/51
f 56/55/41 42/62/47 59/66/51
f 56/55/41 57/63/48 42/62/47
f 56/55/41 51/52/38 57/63/48
f 51/52/38 41/59/45 57/63/48
f 54/54/40 55/57/43 44/68/53
f 54/54/40 52/51/37 55/57/43
f 52/51/37 39/50/36 55/57/43
f 51/52/38 53/60/46 41/59/45
f 51/52/38 52/51/37 53/60/46
f 52/51/37 40/53/39 53/60/46
f 20/100/76 81/101/77 15/102/28
f 15/102/28 82/103/78 16/104/34
f 18/105/31 83/106/79 84/107/80
f 20/100/76 85/108/81 86/109/82
f 16/104/34 83/106/79 17/110/32
f 19/111/29 84/107/80 85/108/81
f 84/107/80 109/112/83 108/113/84
f 98/114/5 87/49/35 93/115/35
f 85/108/81 105/116/85 86/109/82
f 82/103/78 109/112/83 83/106/79
f 85/108/81 108/113/84 107/117/86
f 86/109/82 106/118/87 81/101/77
f 81/101/77 110/119/88 82/103/78
f 87/47/35 94/120/33 93/121/35
f 88/45/33 95/122/3 94/120/33
f 89/43/3 96/123/30 95/122/3
f 90/41/30 97/124/27 96/123/30
f 97/124/27 92/39/5 98/114/5
f 38/125/89 98/114/5 33/30/21
f 96/123/30 38/125/89 37/31/22
f 95/122/3 37/31/22 36/32/23
f 94/120/33 36/32/23 35/34/25
f 93/121/35 35/34/25 34/126/26
f 33/30/21 93/115/35 34/35/26
f 104/19/11 22/127/90 21/128/91
f 99/27/19 23/129/92 22/130/90
f 100/25/17 24/131/93 23/129/92
f 101/22/14 25/132/94 24/131/93
f 102/21/13 26/133/95 25/132/94
f 103/20/12 21/128/91 26/133/95
f 2/1/1 4/4/4 3/2/2
f 4/4/4 8/6/6 7/5/5
f 8/6/6 6/8/8 5/7/7
f 6/8/8 2/134/1 1/9/3
f 4/10/4 2/134/1 6/8/8
f 32/18/10 27/28/20 104/19/11
f 102/21/13 31/23/15 32/18/10
f 101/22/14 30/33/24 31/23/15
f 29/24/16 30/33/24 101/22/14
f 28/26/18 29/24/16 100/25/17
f 27/28/20 28/36/18 99/29/19
f 32/18/10 38/125/89 33/30/21
f 37/31/22 38/125/89 32/18/10
f 36/32/23 37/31/22 31/23/15
f 35/34/25 36/32/23 30/33/24
f 28/26/18 34/126/26 35/34/25
f 27/28/20 33/30/21 34/35/26
f 91/37/27 20/135/76 15/38/28
f 19/40/29 20/135/76 91/37/27
f 18/42/31 19/40/29 90/41/30
f 17/44/32 18/42/31 89/43/3
f 16/46/34 17/44/32 88/45/33
f 92/39/5 15/38/28 16/48/34
f 20/100/76 86/109/82 81/101/77
f 15/102/28 81/101/77 82/103/78
f 18/105/31 17/110/32 83/106/79
f 20/100/76 19/111/29 85/108/81
f 16/104/34 82/103/78 83/106/79
f 19/111/29 18/105/31 84/107/80
f 84/107/80 83/106/79 109/112/83
f 98/114/5 92/39/5 87/49/35
f 85/108/81 107/117/86 105/116/85
f 82/103/78 110/119/88 109/112/83
f 85/108/81 84/107/80 108/113/84
f 86/109/82 105/116/85 106/118/87
f 81/101/77 106/118/87 110/119/88
f 87/47/35 88/45/33 94/120/33
f 88/45/33 89/43/3 95/122/3
f 89/43/3 90/41/30 96/123/30
f 90/41/30 91/37/27 97/124/27
f 97/124/27 91/37/27 92/39/5
f 38/125/89 97/124/27 98/114/5
f 96/123/30 97/124/27 38/125/89
f 95/122/3 96/123/30 37/31/22
f 94/120/33 95/122/3 36/32/23
f 93/121/35 94/120/33 35/34/25
f 33/30/21 98/114/5 93/115/35
f 104/19/11 99/29/19 22/127/90
f 99/27/19 100/25/17 23/129/92
f 100/25/17 101/22/14 24/131/93
f 101/22/14 102/21/13 25/132/94
f 102/21/13 103/20/12 26/133/95
f 103/20/12 104/19/11 21/128/91
