# Blender v2.91.0 OBJ File: 'street_lamp.blend'
# www.blender.org
# o StreetLamp.D_Cube.004
v -0.125739 2.757009 0.125739
v -0.125739 2.757009 -0.125739
v 0.125739 2.757009 0.125739
v 0.125739 2.757009 -0.125739
v 0.000000 2.709288 0.026146
v 0.000000 3.007154 0.026146
v -0.026146 2.709288 0.000000
v -0.026146 3.007154 0.000000
v 0.026146 2.709288 0.000000
v 0.026146 3.007154 0.000000
v 0.000000 2.709288 -0.026146
v 0.000000 3.007154 -0.026146
v 0.000000 3.423502 0.000000
v 0.000040 2.591868 -0.048067
v 0.041664 2.591384 -0.024033
v 0.041664 2.591384 0.024033
v 0.000040 2.591868 0.048067
v -0.041585 2.592353 0.024033
v -0.041585 2.592353 -0.024033
v 0.000008 -0.154124 -0.192542
v 0.166754 -0.154124 -0.096271
v 0.166754 -0.154124 0.096271
v 0.000008 -0.154124 0.192542
v -0.166738 -0.154124 0.096271
v -0.166738 -0.154124 -0.096271
v 0.000008 0.656510 -0.114516
v 0.099182 0.656510 -0.057258
v 0.099182 0.656510 0.057258
v 0.000008 0.656510 0.114516
v -0.099166 0.656510 0.057258
v -0.099166 0.656510 -0.057258
v 0.000008 0.743265 -0.060148
v 0.052098 0.743265 -0.030074
v 0.052098 0.743265 0.030074
v 0.000008 0.743265 0.060148
v -0.052082 0.743265 0.030074
v -0.052082 0.743265 -0.030074
v 0.000040 2.659593 -0.086666
v 0.075090 2.658720 -0.043333
v 0.075090 2.658720 0.043333
v 0.000040 2.659593 0.086667
v -0.075011 2.660467 0.043333
v -0.075011 2.660467 -0.043333
v 0.040913 2.561032 -0.023600
v 0.040913 2.561032 0.023600
v 0.000039 2.561500 0.047200
v -0.040835 2.561969 0.023600
v -0.040835 2.561969 -0.023600
v 0.000039 2.561500 -0.047200
v 0.052099 0.783030 -0.030074
v 0.052099 0.783030 0.030074
v 0.000009 0.783044 0.060148
v -0.052081 0.783058 0.030074
v -0.052081 0.783058 -0.030074
v 0.000009 0.783044 -0.060148
v 0.103045 0.625004 -0.059489
v 0.103045 0.625004 0.059489
v 0.000008 0.625004 0.118977
v -0.103029 0.625004 0.059489
v -0.103029 0.625004 -0.059489
v 0.000008 0.625004 -0.118977
v -0.089169 2.743403 -0.051508
v 0.000040 2.742365 -0.103016
v -0.089169 2.743403 0.051508
v 0.000040 2.742365 0.103017
v 0.089248 2.741327 0.051508
v 0.089248 2.741327 -0.051508
v -0.125739 2.739116 0.125739
v -0.191806 3.185671 0.191806
v -0.125739 2.739116 -0.125739
v -0.191806 3.185671 -0.191806
v 0.125739 2.739116 0.125739
v 0.191806 3.185671 0.191806
v 0.125739 2.739116 -0.125739
v 0.191806 3.185671 -0.191806
v -0.027714 3.296930 0.027714
v -0.027714 3.296930 -0.027714
v 0.027714 3.296930 -0.027714
v 0.027714 3.296930 0.027714
v -0.047684 3.331241 0.047685
v -0.047685 3.331241 -0.047685
v 0.047685 3.331241 -0.047684
v 0.047685 3.331241 0.047685
v 0.115397 0.091913 -0.066620
v 0.115397 0.091913 0.066620
v 0.000008 0.091913 0.133240
v -0.115381 0.091913 0.066620
v -0.115381 0.091913 -0.066620
v 0.000008 0.091912 -0.133240
v 0.164307 0.041936 -0.094858
v 0.164307 0.041936 0.094858
v 0.000008 0.041936 0.189717
v -0.164292 0.041936 0.094858
v -0.164292 0.041936 -0.094858
v 0.000008 0.041936 -0.189717
v 0.000008 0.117551 -0.132514
v 0.114768 0.117551 -0.066257
v 0.114768 0.117551 0.066257
v 0.000008 0.117551 0.132514
v -0.114752 0.117551 0.066257
v -0.114752 0.117551 -0.066257
vt 0.010358 0.880088
vt 0.256076 0.819949
vt 0.010358 0.819949
vt 0.256076 0.880088
vt 0.203342 0.669844
vt 0.155963 0.556921
vt 0.203342 0.556921
vt 0.155963 0.669844
vt 0.108585 0.556921
vt 0.108585 0.669844
vt 0.061206 0.556921
vt 0.061206 0.669844
vt 0.013827 0.556921
vt 0.013827 0.681605
vt 0.061206 0.681605
vt 0.333333 0.135609
vt 0.166667 0.144791
vt 0.166667 0.135609
vt 0.500000 0.144791
vt 0.500000 0.135609
vt 0.666667 0.144791
vt 0.666667 0.135609
vt 0.833333 0.144791
vt 0.833333 0.135609
vt 0.999658 0.144791
vt 0.999658 0.135609
vt -0.000000 0.135609
vt 0.333333 0.144791
vt 0.166667 0.159779
vt 0.500000 0.159779
vt 0.666667 0.159779
vt 0.833333 0.159779
vt -0.000000 0.159779
vt -0.000000 0.144791
vt 0.333333 0.539796
vt 0.166667 0.545838
vt 0.166667 0.539796
vt 0.500000 0.545838
vt 0.500000 0.539796
vt 0.666667 0.545838
vt 0.666667 0.539796
vt 0.833333 0.545838
vt 0.833333 0.539796
vt 1.002392 0.545838
vt 1.002349 0.539796
vt -0.000000 0.545838
vt -0.000000 0.539796
vt 0.540691 0.598883
vt 0.705820 0.612248
vt 0.570434 0.612248
vt 0.608060 0.654477
vt 0.540691 0.625638
vt 0.450659 0.612248
vt 0.413790 0.654477
vt 0.317143 0.612248
vt 0.413790 0.569454
vt 0.608060 0.569454
vt 0.481068 0.625638
vt 0.481068 0.598883
vt 0.378329 0.669027
vt 0.247878 0.612248
vt 0.166667 0.168773
vt -0.000000 0.168773
vt 0.642889 0.555416
vt 0.378329 0.555416
vt 0.775449 0.612248
vt 0.642889 0.669027
vt 0.833333 0.168773
vt 0.999722 0.168773
vt 0.666667 0.168773
vt 0.500000 0.168773
vt 0.333333 0.168773
vt 0.333333 0.159779
vt 0.999658 0.159779
vt -0.000000 0.049134
vt 0.166667 0.049134
vt 0.833333 0.049134
vt 0.999658 0.049134
vt 0.666667 0.049134
vt 0.500000 0.049134
vt 0.333333 0.049134
vt 0.993232 0.993984
vt 0.747513 0.880088
vt 0.993232 0.880088
vt 0.747513 0.993984
vt 0.501795 0.880088
vt 0.501795 0.993984
vt 0.256076 0.880088
vt 0.256076 0.993984
vt 0.010358 0.880088
vt 0.256076 0.819949
vt 0.010358 0.819949
vt 0.112280 0.708145
vt 0.159419 0.696029
vt 0.206443 0.708145
vt 0.206443 0.683772
vt 0.112280 0.683772
vt 0.215861 0.759410
vt 0.375821 0.810341
vt 0.215861 0.770928
vt 0.018466 0.720518
vt 0.375821 0.720518
vt 0.169519 0.759410
vt 0.018466 0.810341
vt 0.169519 0.770928
vt 0.221919 0.680404
vt 0.096918 0.711654
vt 0.096918 0.680404
vt 0.221919 0.711654
vt 0.333333 0.035458
vt 0.166667 0.044497
vt 0.166667 0.035458
vt 0.500000 0.035458
vt 0.333333 0.044497
vt 0.666667 0.044497
vt 0.666667 0.035458
vt 0.833333 0.044497
vt 0.833333 0.035458
vt 0.999658 0.035458
vt -0.000000 0.035458
vt -0.000000 0.000000
vt 0.166667 0.000000
vt 0.833333 0.000000
vt 0.999658 0.000000
vt 0.666667 0.000000
vt 0.500000 0.000000
vt 0.333333 0.000000
vt 0.500000 0.044497
vt 0.999658 0.044497
vt -0.000000 0.044497
vt 0.013827 0.669844
vt 0.333333 0.545838
vt 0.010358 0.993984
vn 0.0000 1.0000 0.0000
vn 0.0000 0.5773 0.8165
vn -1.0000 0.0000 0.0000
vn 0.0000 0.0000 1.0000
vn -0.8165 0.5773 0.0000
vn 0.0000 0.0000 -1.0000
vn 0.0000 0.5773 -0.8165
vn 1.0000 0.0000 0.0000
vn 0.8165 0.5773 0.0000
vn -0.8631 0.0821 -0.4983
vn 0.0000 0.3234 -0.9463
vn 0.0000 0.0821 -0.9966
vn -0.8195 0.3234 0.4731
vn -0.8631 0.0821 0.4983
vn 0.0000 0.3234 0.9463
vn 0.0000 0.0821 0.9966
vn 0.8195 0.3234 0.4731
vn 0.8631 0.0821 0.4983
vn 0.8195 0.3234 -0.4731
vn 0.8631 0.0821 -0.4983
vn -0.8195 0.3234 -0.4731
vn 0.0000 0.3029 -0.9530
vn -0.8253 0.3029 0.4765
vn 0.0000 0.3029 0.9530
vn 0.8253 0.3029 0.4765
vn 0.8253 0.3029 -0.4765
vn -0.8660 -0.0107 -0.4999
vn -0.0030 -0.2924 -0.9563
vn -0.0001 -0.0107 -0.9999
vn -0.8291 -0.2918 0.4769
vn -0.8660 -0.0107 0.4999
vn -0.0030 -0.2924 0.9563
vn -0.0001 -0.0107 0.9999
vn 0.8272 -0.2930 0.4794
vn 0.8659 -0.0106 0.5000
vn 0.8272 -0.2930 -0.4794
vn 0.8659 -0.0106 -0.5000
vn -0.8291 -0.2918 -0.4769
vn -0.0027 -0.3332 -0.9428
vn 0.8153 -0.3348 -0.4723
vn 0.8153 -0.3348 0.4723
vn -0.0027 -0.3332 0.9428
vn -0.8177 -0.3316 0.4705
vn -0.8177 -0.3316 -0.4705
vn 0.8481 -0.1941 0.4928
vn -0.0055 -0.1938 0.9810
vn 0.0000 0.0036 -1.0000
vn 0.8660 0.0036 -0.5000
vn -0.8510 -0.1934 -0.4881
vn -0.8510 -0.1934 0.4881
vn -0.0055 -0.1938 -0.9810
vn 0.8481 -0.1941 -0.4928
vn 0.8660 0.0036 0.5000
vn 0.0000 0.0036 1.0000
vn -0.8660 0.0036 0.5000
vn -0.8660 0.0036 -0.5000
vn -0.8253 0.3029 -0.4765
vn 0.8657 0.0275 -0.4998
vn 0.0000 0.0275 -0.9996
vn 0.8657 0.0275 0.4998
vn 0.0000 0.0275 0.9996
vn -0.8657 0.0275 0.4998
vn -0.8657 0.0275 -0.4998
vn -0.9892 -0.1464 0.0000
vn 0.0000 -0.1464 -0.9892
vn 0.9892 -0.1464 0.0000
vn 0.0000 -0.1464 0.9892
vn 0.0000 -1.0000 0.0000
vn 0.8884 0.4591 0.0000
vn 0.0000 0.4591 0.8884
vn 0.0000 0.4591 -0.8884
vn -0.8884 0.4591 0.0000
vn -0.5612 0.8277 0.0000
vn 0.0000 0.8277 -0.5612
vn 0.5612 0.8277 0.0000
vn 0.0000 0.8277 0.5612
vn -0.8643 -0.5030 0.0000
vn 0.0000 -0.5031 -0.8643
vn 0.8643 -0.5030 0.0000
vn 0.0000 -0.5031 0.8643
vn -0.8028 0.3750 -0.4635
vn 0.0000 0.4816 -0.8764
vn 0.0000 0.3750 -0.9270
vn -0.8028 0.3750 0.4635
vn -0.7590 0.4816 -0.4382
vn 0.0000 0.4816 0.8764
vn 0.0000 0.3750 0.9270
vn 0.7590 0.4816 0.4382
vn 0.8028 0.3750 0.4635
vn 0.8028 0.3750 -0.4635
vn 0.8659 0.0144 -0.4999
vn 0.0000 0.0144 -0.9999
vn 0.8659 0.0144 0.4999
vn 0.0000 0.0144 0.9999
vn -0.8659 0.0144 0.4999
vn -0.8659 0.0144 -0.4999
vn -0.7590 0.4816 0.4382
vn 0.7590 0.4816 -0.4382
vn 0.0000 -0.5030 -0.8643
vn 0.0000 -0.5030 0.8643
# s off
f 1/1/1 4/2/1 2/3/1
f 1/1/1 3/4/1 4/2/1
# s 1
f 6/5/2 7/6/3 5/7/4
f 8/8/5 11/9/6 7/6/3
f 12/10/7 9/11/8 11/9/6
f 10/12/9 5/13/4 9/11/8
f 8/14/5 10/12/9 12/15/7
f 60/16/10 26/17/11 61/18/12
f 30/19/13 60/16/10 59/20/14
f 29/21/15 59/20/14 58/22/16
f 28/23/17 58/22/16 57/24/18
f 27/25/19 57/24/18 56/26/20
f 26/17/11 56/27/20 61/18/12
f 31/28/21 32/29/22 26/17/11
f 36/30/23 31/28/21 30/19/13
f 35/31/24 30/19/13 29/21/15
f 34/32/25 29/21/15 28/23/17
f 27/25/19 34/32/25 28/23/17
f 26/17/11 33/33/26 27/34/19
f 48/35/27 14/36/28 49/37/29
f 18/38/30 48/35/27 47/39/31
f 17/40/32 47/39/31 46/41/33
f 16/42/34 46/41/33 45/43/35
f 15/44/36 45/43/35 44/45/37
f 49/37/29 15/46/36 44/47/37
f 19/48/38 38/49/39 14/50/28
f 14/50/28 39/51/40 15/52/36
f 17/53/32 40/54/41 41/55/42
f 19/48/38 42/56/43 43/57/44
f 15/52/36 40/54/41 16/58/34
f 18/59/30 41/55/42 42/56/43
f 41/55/42 66/60/45 65/61/46
f 55/62/47 44/47/37 50/63/48
f 42/56/43 62/64/49 43/57/44
f 39/51/40 66/60/45 40/54/41
f 42/56/43 65/61/46 64/65/50
f 43/57/44 63/66/51 38/49/39
f 38/49/39 67/67/52 39/51/40
f 44/45/37 51/68/53 50/69/48
f 45/43/35 52/70/54 51/68/53
f 46/41/33 53/71/55 52/70/54
f 47/39/31 54/72/56 53/71/55
f 54/72/56 49/37/29 55/62/47
f 37/73/57 55/62/47 32/29/22
f 53/71/55 37/73/57 36/30/23
f 52/70/54 36/30/23 35/31/24
f 51/68/53 35/31/24 34/32/25
f 50/69/48 34/32/25 33/74/26
f 32/29/22 50/63/48 33/33/26
f 61/18/12 97/75/58 96/76/59
f 56/26/20 98/77/60 97/78/58
f 98/77/60 58/22/16 99/79/61
f 58/22/16 100/80/62 99/79/61
f 59/20/14 101/81/63 100/80/62
f 101/81/63 61/18/12 96/76/59
# s off
f 69/82/64 70/83/64 68/84/64
f 71/85/65 74/86/65 70/83/65
f 75/87/66 72/88/66 74/86/66
f 73/89/67 68/90/67 72/88/67
f 74/91/68 68/90/68 70/92/68
f 82/93/69 13/94/69 83/95/69
f 83/95/70 13/94/70 80/96/70
f 13/94/71 82/93/71 81/97/71
f 80/96/72 13/94/72 81/97/72
f 77/98/73 69/99/73 76/100/73
f 77/98/74 75/101/74 71/102/74
f 78/103/75 73/104/75 75/101/75
f 76/100/76 73/104/76 79/105/76
f 81/97/77 76/106/77 80/96/77
f 81/97/78 78/107/78 77/108/78
f 82/93/79 79/109/79 78/107/79
f 80/96/80 79/109/80 83/95/80
# s 1
f 94/110/81 89/111/82 95/112/83
f 93/113/84 88/114/85 94/110/81
f 86/115/86 93/113/84 92/116/87
f 85/117/88 92/116/87 91/118/89
f 90/119/90 85/117/88 91/118/89
f 89/111/82 90/120/90 95/112/83
f 95/112/83 21/121/91 20/122/92
f 90/119/90 22/123/93 21/124/91
f 91/118/89 23/125/94 22/123/93
f 92/116/87 24/126/95 23/125/94
f 93/113/84 25/127/96 24/126/95
f 25/127/96 95/112/83 20/122/92
f 88/114/85 96/76/59 89/111/82
f 100/80/62 88/114/85 87/128/97
f 99/79/61 87/128/97 86/115/86
f 98/77/60 86/115/86 85/117/88
f 97/78/58 85/117/88 84/129/98
f 96/76/59 84/130/98 89/111/82
f 6/5/2 8/8/5 7/6/3
f 8/8/5 12/10/7 11/9/6
f 12/10/7 10/12/9 9/11/8
f 10/12/9 6/131/2 5/13/4
f 8/14/5 6/131/2 10/12/9
f 60/16/10 31/28/21 26/17/11
f 30/19/13 31/28/21 60/16/10
f 29/21/15 30/19/13 59/20/14
f 28/23/17 29/21/15 58/22/16
f 27/25/19 28/23/17 57/24/18
f 26/17/11 27/34/19 56/27/20
f 31/28/21 37/73/57 32/29/22
f 36/30/23 37/73/57 31/28/21
f 35/31/24 36/30/23 30/19/13
f 34/32/25 35/31/24 29/21/15
f 27/25/19 33/74/26 34/32/25
f 26/17/11 32/29/22 33/33/26
f 48/35/27 19/132/38 14/36/28
f 18/38/30 19/132/38 48/35/27
f 17/40/32 18/38/30 47/39/31
f 16/42/34 17/40/32 46/41/33
f 15/44/36 16/42/34 45/43/35
f 49/37/29 14/36/28 15/46/36
f 19/48/38 43/57/44 38/49/39
f 14/50/28 38/49/39 39/51/40
f 17/53/32 16/58/34 40/54/41
f 19/48/38 18/59/30 42/56/43
f 15/52/36 39/51/40 40/54/41
f 18/59/30 17/53/32 41/55/42
f 41/55/42 40/54/41 66/60/45
f 55/62/47 49/37/29 44/47/37
f 42/56/43 64/65/50 62/64/49
f 39/51/40 67/67/52 66/60/45
f 42/56/43 41/55/42 65/61/46
f 43/57/44 62/64/49 63/66/51
f 38/49/39 63/66/51 67/67/52
f 44/45/37 45/43/35 51/68/53
f 45/43/35 46/41/33 52/70/54
f 46/41/33 47/39/31 53/71/55
f 47/39/31 48/35/27 54/72/56
f 54/72/56 48/35/27 49/37/29
f 37/73/57 54/72/56 55/62/47
f 53/71/55 54/72/56 37/73/57
f 52/70/54 53/71/55 36/30/23
f 51/68/53 52/70/54 35/31/24
f 50/69/48 51/68/53 34/32/25
f 32/29/22 55/62/47 50/63/48
f 61/18/12 56/27/20 97/75/58
f 56/26/20 57/24/18 98/77/60
f 98/77/60 57/24/18 58/22/16
f 58/22/16 59/20/14 100/80/62
f 59/20/14 60/16/10 101/81/63
f 101/81/63 60/16/10 61/18/12
# s off
f 69/82/64 71/85/64 70/83/64
f 71/85/65 75/87/65 74/86/65
f 75/87/66 73/89/66 72/88/66
f 73/89/67 69/133/67 68/90/67
f 74/91/68 72/88/68 68/90/68
f 77/98/73 71/102/73 69/99/73
f 77/98/74 78/103/74 75/101/74
f 78/103/75 79/105/75 73/104/75
f 76/100/76 69/99/76 73/104/76
f 81/97/77 77/108/77 76/106/77
f 81/97/99 82/93/99 78/107/99
f 82/93/79 83/95/79 79/109/79
f 80/96/100 76/106/100 79/109/100
# s 1
f 94/110/81 88/114/85 89/111/82
f 93/113/84 87/128/97 88/114/85
f 86/115/86 87/128/97 93/113/84
f 85/117/88 86/115/86 92/116/87
f 90/119/90 84/129/98 85/117/88
f 89/111/82 84/130/98 90/120/90
f 95/112/83 90/120/90 21/121/91
f 90/119/90 91/118/89 22/123/93
f 91/118/89 92/116/87 23/125/94
f 92/116/87 93/113/84 24/126/95
f 93/113/84 94/110/81 25/127/96
f 25/127/96 94/110/81 95/112/83
f 88/114/85 101/81/63 96/76/59
f 100/80/62 101/81/63 88/114/85
f 99/79/61 100/80/62 87/128/97
f 98/77/60 99/79/61 86/115/86
f 97/78/58 98/77/60 85/117/88
f 96/76/59 97/75/58 84/130/98
