#
# Tree.obj
#

v  0.00 5.0  0.00
v  0.00 1.5 -1.00
v -1.00 1.5  0.00
v  0.00 1.5  1.00
v  1.00 1.5  0.00
v  0.00 4.0  0.00
v  0.00 0.0 -0.36
v -0.31 0.0  0.18
v  0.31 0.0  0.18

vt 0.0 1.0
vt 0.0 0.7
vt 0.3 0.7
vt 0.6 0.7
vt 1.0 0.7
vt 0.0 1.0
vt 0.0 0.0
vt 0.5 0.0
vt 1.0 0.0

vn  0.00  1.00  0.00
vn  0.00 -0.44 -0.90
vn -0.90 -0.44  0.00
vn  0.00 -0.44  0.90
vn  0.90 -0.44  0.00
vn  0.00  1.00  0.00
vn  0.00  0.00 -1.00
vn -0.87  0.00  0.49
vn  0.87  0.00  0.49

f 1/1/1 2/2/2 3/3/3
f 1/1/1 3/3/3 4/4/4
f 1/1/1 4/4/4 5/5/5
f 1/1/1 5/5/5 2/2/2
f 2/2/2 5/5/5 4/4/4
f 4/4/4 3/3/3 2/2/2
f 6/6/6 7/7/7 8/8/8
f 6/6/6 8/8/8 9/9/9
f 6/6/6 9/9/9 7/7/7

