# Blender v2.91.0 OBJ File: 'zombie_male_no_mirror.blend'
# www.blender.org
# o Zombie.LowerBody_Zombie.002
v 0.748333 0.159995 0.262448
v 0.757271 -0.006325 0.186285
v 1.004592 0.007289 0.175883
v 0.998988 0.160501 0.211410
v 0.757446 0.025877 0.021579
v 0.746749 0.249242 0.112883
v 1.007053 -0.011596 0.081796
v 0.999328 0.210493 0.113105
v 0.837413 0.183588 0.244593
v 0.844449 -0.004248 0.199185
v 0.847100 -0.016292 0.078737
v 0.838101 0.240614 0.118120
v -0.077694 0.118142 0.094429
v -0.085692 -0.011024 0.211657
v 0.090238 0.100384 0.352140
v 0.120154 0.207288 0.288122
v 0.382964 0.061684 0.052518
v 0.390558 -0.030724 0.165290
v 0.325690 0.074290 0.283640
v 0.313578 0.185023 0.190112
v 0.091329 0.116589 0.178007
v 0.127866 0.061881 0.284221
v 0.085073 0.041371 0.244008
v 0.149670 0.144551 0.232830
v 0.093476 -0.015914 0.252063
v 0.114920 0.210940 0.243747
v 0.073248 0.092907 0.127166
v 0.129283 0.085506 0.352237
v -0.106992 0.138723 0.115109
v -0.114990 0.009558 0.232337
v 0.060940 0.120966 0.372820
v 0.090856 0.227870 0.308802
v 0.468204 0.185307 0.168465
v 0.473509 0.076287 0.261369
v 0.647117 0.093825 0.265071
v 0.636271 0.219501 0.176411
v 0.737613 0.271272 -0.076765
v 0.777918 0.128049 -0.170321
v 1.008266 0.076680 -0.122803
v 1.002662 0.229892 -0.087276
v 0.749432 0.248227 0.071295
v 0.758317 0.006454 0.014978
v 0.999882 0.220962 0.068042
v 1.007843 0.003324 0.017575
v 0.777434 -0.001483 -0.059574
v 0.731342 0.223081 0.069328
v 1.008633 0.018244 -0.046646
v 1.000437 0.231431 0.022978
v 0.841564 0.266787 -0.109013
v 0.850113 0.081706 -0.154269
v 0.838655 0.251083 0.073056
v 0.847890 -0.001372 0.014517
v 0.848680 0.013548 -0.049704
v 0.839210 0.261552 0.027993
v 0.008141 0.034686 -0.326059
v 0.016546 0.206944 -0.298744
v 0.155264 0.171348 -0.092373
v 0.168449 0.044189 -0.083532
v 0.494091 -0.002586 -0.315221
v 0.474656 0.141180 -0.331653
v 0.398339 0.174599 -0.178886
v 0.394647 0.034274 -0.140791
v 0.166956 0.061587 -0.228024
v 0.205032 0.160954 -0.162563
v 0.170468 0.160842 -0.214277
v 0.214078 0.061741 -0.157522
v 0.164539 0.186169 -0.269778
v 0.194898 0.052035 -0.087897
v 0.154088 0.020672 -0.251027
v 0.199606 0.213118 -0.129608
v -0.026195 0.032722 -0.303106
v -0.017790 0.204980 -0.275791
v 0.120928 0.169384 -0.069419
v 0.134113 0.042225 -0.060578
v 0.488555 0.033336 -0.129500
v 0.475963 0.171099 -0.168160
v 0.613746 0.203247 -0.069891
v 0.609152 0.078260 0.001116
v 0.085073 0.041371 0.244008
v 0.127866 0.061881 0.284221
v 0.149670 0.144551 0.232830
v 0.091329 0.116589 0.178007
v 0.073248 0.092907 0.127166
v 0.093476 -0.015914 0.252063
v 0.129283 0.085506 0.352237
v 0.114920 0.210940 0.243747
v 0.170468 0.160842 -0.214277
v 0.205032 0.160954 -0.162563
v 0.214078 0.061741 -0.157522
v 0.166956 0.061587 -0.228024
v 0.154088 0.020672 -0.251027
v 0.164539 0.186169 -0.269778
v 0.199606 0.213118 -0.129608
v 0.194898 0.052035 -0.087897
v -0.106992 0.138723 0.115109
v -0.114990 0.009558 0.232337
v 0.060940 0.120966 0.372820
v 0.090856 0.227870 0.308802
v -0.026195 0.032722 -0.303106
v -0.017790 0.204980 -0.275791
v 0.120928 0.169384 -0.069419
v 0.134113 0.042225 -0.060578
v 0.998988 0.160501 0.211410
v 1.004592 0.007289 0.175883
v 1.007053 -0.011596 0.081796
v 0.999882 0.220962 0.068042
v 0.999328 0.210493 0.113105
v 1.002662 0.229892 -0.087276
v 1.008266 0.076680 -0.122803
v 1.008633 0.018244 -0.046646
v 1.000437 0.231431 0.022978
v 1.007843 0.003324 0.017575
vt 0.395761 0.101522
vt 0.408526 0.038155
vt 0.335667 0.041133
vt 0.582204 0.238536
vt 0.638912 0.237943
vt 0.629168 0.169732
vt 0.080257 0.773527
vt 0.125758 0.753251
vt 0.099668 0.690279
vt 0.292036 0.108753
vt 0.289537 0.043994
vt 0.263741 0.044349
vt 0.333871 0.106564
vt 0.751990 0.316705
vt 0.751990 0.327083
vt 0.813546 0.327083
vt 0.563194 0.170087
vt 0.563178 0.238522
vt 0.563169 0.275358
vt 0.572408 0.275358
vt 0.337403 0.006858
vt 0.272456 0.009250
vt 0.263741 0.009251
vt 0.641109 0.274976
vt 0.407096 0.003946
vt 0.030448 0.814903
vt 0.050414 0.707019
vt 0.035698 0.696573
vt 0.068037 0.812942
vt 0.036771 0.867236
vt 0.153001 0.769236
vt 0.187282 0.741636
vt 0.932325 0.316705
vt 0.932325 0.299347
vt 0.873312 0.316705
vt 0.751990 0.299347
vt 0.813546 0.316705
vt 0.813546 0.140151
vt 0.997481 0.316705
vt 0.997481 0.299347
vt 0.873312 0.140151
vt 0.873312 0.019868
vt 0.932325 0.019868
vt 0.932325 0.002464
vt 0.813546 0.019868
vt 0.813546 0.002464
vt 0.751990 0.002464
vt 0.997481 0.019868
vt 0.997481 0.002464
vt 0.873312 0.002464
vt 0.873312 0.019868
vt 0.813546 0.019868
vt 0.932325 0.140151
vt 0.997481 0.140151
vt 0.997481 0.019868
vt 0.751990 0.140151
vt 0.932325 0.019868
vt 0.064821 0.575619
vt 0.013384 0.581260
vt 0.035698 0.696573
vt 0.196509 0.725977
vt 0.101138 0.670323
vt 0.013384 0.814644
vt 0.997481 0.152422
vt 0.932325 0.152422
vt 0.751990 0.152422
vt 0.191814 0.041133
vt 0.118955 0.038155
vt 0.131720 0.101521
vt 0.544152 0.238527
vt 0.543635 0.170124
vt 0.497220 0.169701
vt 0.415863 0.688103
vt 0.389773 0.751076
vt 0.435274 0.771351
vt 0.237944 0.043994
vt 0.235445 0.108753
vt 0.193610 0.106564
vt 0.935925 0.667301
vt 0.997481 0.667301
vt 0.997481 0.657071
vt 0.553931 0.275354
vt 0.190078 0.006858
vt 0.255025 0.009250
vt 0.485229 0.274940
vt 0.120385 0.003946
vt 0.479833 0.694397
vt 0.465118 0.704843
vt 0.485083 0.812727
vt 0.447494 0.810766
vt 0.441459 0.854864
vt 0.478761 0.865060
vt 0.328249 0.739461
vt 0.362530 0.767061
vt 0.817147 0.657071
vt 0.876160 0.657071
vt 0.817147 0.632600
vt 0.935925 0.486741
vt 0.935925 0.657071
vt 0.997481 0.632600
vt 0.751990 0.632600
vt 0.751990 0.657071
vt 0.817147 0.338625
vt 0.817147 0.354721
vt 0.876160 0.354721
vt 0.935925 0.354721
vt 0.997481 0.354721
vt 0.997481 0.338625
vt 0.751990 0.354721
vt 0.876160 0.338625
vt 0.876160 0.486741
vt 0.935925 0.354721
vt 0.751990 0.354721
vt 0.751990 0.486741
vt 0.817147 0.486741
vt 0.997481 0.486741
vt 0.876160 0.354721
vt 0.479833 0.694397
vt 0.502147 0.579084
vt 0.450711 0.573443
vt 0.414393 0.668148
vt 0.502147 0.812468
vt 0.751990 0.499505
vt 0.817147 0.499505
vt 0.997481 0.499505
vt 0.585208 0.547823
vt 0.567853 0.598325
vt 0.566508 0.547227
vt 0.582753 0.170133
vt 0.263741 0.109349
vt 0.074073 0.857040
vt 0.751990 0.019868
vt 0.751990 0.019868
vt 0.101138 0.670323
vt 0.019196 0.869111
vt 0.487444 0.237907
vt 0.935925 0.338625
vt 0.751990 0.338625
vt 0.817147 0.354721
vt 0.997481 0.354721
vt 0.414393 0.668148
vt 0.319022 0.723801
vt 0.496335 0.866935
vt 0.547291 0.558060
vt 0.546798 0.587643
vt 0.583985 0.598280
vt 0.605601 0.598316
vt 0.627922 0.557375
vt 0.626688 0.586270
vt 0.606649 0.547912
vn 0.2230 0.3991 0.8894
vn 0.1018 0.4781 0.8724
vn 0.0347 -0.7303 0.6822
vn 0.1122 0.9319 0.3448
vn 0.4256 0.2031 -0.8818
vn 0.2526 -0.9675 0.0080
vn -0.1899 -0.9658 -0.1761
vn 0.0296 -0.9995 -0.0146
vn -0.0973 -0.9911 -0.0912
vn -0.0401 -0.9874 -0.1528
vn 0.1209 -0.7468 0.6540
vn -0.4095 0.9123 0.0052
vn -0.5875 0.5434 -0.5996
vn -0.6636 -0.6225 0.4148
vn 0.1857 0.9566 0.2245
vn 0.0416 0.9838 0.1745
vn -0.0330 -0.8857 0.4631
vn 0.6417 -0.7537 -0.1422
vn 0.0755 0.3009 0.9507
vn 0.7590 0.6505 0.0269
vn -0.0836 0.0086 -0.9965
vn -0.4122 0.2832 -0.8659
vn 0.8081 0.5577 -0.1894
vn 0.5219 -0.4039 0.7513
vn 0.5251 -0.5820 0.6209
vn -0.0352 -0.0716 0.9968
vn -0.2569 0.9637 0.0716
vn -0.1292 -0.0860 -0.9879
vn 0.0122 -0.9998 -0.0115
vn -0.9483 0.0478 0.3137
vn -0.9964 0.0842 -0.0085
vn -0.9831 0.1832 -0.0051
vn -0.9525 0.1581 0.2602
vn -0.5255 0.8273 -0.1985
vn -0.9077 -0.3952 -0.1411
vn -0.9136 -0.3732 0.1611
vn -0.9329 -0.0434 0.3574
vn -0.0193 -0.9983 0.0554
vn -0.2332 -0.0298 -0.9720
vn 0.2389 -0.0547 0.9695
vn 0.0649 0.9978 0.0074
vn 0.1391 0.9900 0.0222
vn 0.3252 -0.0722 0.9429
vn -0.7112 0.4966 0.4976
vn -0.7110 0.4969 0.4975
vn -0.7114 0.4962 0.4977
vn 0.3854 -0.3208 0.8652
vn -0.5332 -0.8419 0.0825
vn 0.6233 0.7738 0.1129
vn -0.0899 0.9957 0.0233
vn 0.0615 -0.0540 0.9966
vn 0.0027 -0.4442 -0.8959
vn 0.1020 0.8040 -0.5857
vn 0.2447 0.7510 -0.6132
vn 0.0156 0.9856 0.1685
vn 0.1858 0.9768 0.1060
vn 0.0193 0.7220 -0.6916
vn 0.4374 0.7712 -0.4624
vn 0.4457 -0.7068 -0.5493
vn 0.1052 -0.8906 -0.4425
vn 0.0347 -0.9037 -0.4267
vn 0.1458 -0.3884 -0.9099
vn -0.3605 0.4023 0.8415
vn 0.2604 0.0743 -0.9626
vn -0.0199 -0.9792 -0.2019
vn -0.3830 0.8809 -0.2779
vn -0.3900 -0.6620 -0.6400
vn -0.0042 -0.5479 -0.8365
vn 0.6109 -0.6138 0.5001
vn 0.6944 -0.6629 0.2800
vn 0.5788 0.7591 0.2980
vn 0.5300 0.6848 0.5001
vn -0.3825 0.8589 0.3405
vn 0.1345 -0.7441 -0.6543
vn -0.5022 -0.3062 0.8087
vn -0.9957 -0.0817 0.0442
vn -0.9856 -0.1507 0.0763
vn -0.9648 0.1179 0.2349
vn -0.9048 0.1916 0.3803
vn -0.9431 0.2702 -0.1938
vn -0.8787 0.4671 -0.0981
vn -0.8175 0.4773 0.3221
vn 0.1218 0.5117 -0.8505
vn -0.1759 -0.7945 -0.5812
vn 0.1753 -0.5346 0.8267
vn 0.0280 -0.5871 0.8090
vn 0.1267 0.8664 0.4829
vn -0.0543 0.6065 -0.7932
vn -0.8326 -0.0472 0.5518
vn -0.8324 -0.0479 0.5521
vn -0.8325 -0.0475 0.5519
vn -0.3611 0.8046 -0.4714
vn 0.4471 -0.6513 0.6131
vn -0.2030 -0.6658 0.7179
vn -0.2495 0.8608 0.4436
vn 0.9993 0.0320 0.0197
vn 0.1829 0.9225 0.3397
vn 0.0329 -0.9736 -0.2258
vn -0.7115 0.4959 0.4978
vn -0.8324 -0.0485 0.5520
vn 0.2794 0.8349 0.4742
vn -0.8327 -0.0468 0.5517
vn 0.3712 0.6958 0.6148
# s 1
f 103/1/1 9/2/2 10/3/3
f 12/4/4 9/5/2 103/6/1
f 82/7/5 79/8/6 14/9/7
f 105/10/8 11/11/9 52/12/10
f 104/13/11 10/3/3 11/11/9
f 6/14/12 41/15/13 42/16/14
f 106/17/15 51/18/16 12/4/4
f 51/18/16 41/19/13 6/20/12
f 2/21/17 5/22/18 11/11/9
f 5/22/18 42/23/14 52/12/10
f 12/4/4 6/20/12 1/24/19
f 9/2/2 1/25/19 2/21/17
f 16/26/20 13/27/21 29/28/22
f 81/29/23 16/26/20 15/30/24
f 82/7/5 13/27/21 16/26/20
f 79/8/6 80/31/25 15/32/24
f 1/33/19 35/34/26 2/35/17
f 36/36/27 5/37/18 17/38/28
f 1/33/19 6/39/12 36/40/27
f 2/35/17 18/41/29 17/38/28
f 25/42/30 85/43/31 22/44/32
f 83/45/33 21/46/34 24/47/35
f 26/48/36 24/49/35 22/44/32
f 83/45/33 25/42/30 23/50/37
f 18/41/29 84/51/38 27/52/39
f 19/53/40 20/54/41 86/55/42
f 20/56/41 17/38/28 27/52/39
f 19/53/40 28/57/43 84/51/38
f 97/58/44 98/59/45 95/60/46
f 15/32/24 31/61/47 30/62/48
f 15/30/24 16/26/20 32/63/49
f 13/27/21 14/9/7 30/62/48
f 35/34/26 36/40/27 33/64/50
f 35/34/26 34/65/51 18/41/29
f 36/36/27 6/14/12 5/37/18
f 34/65/51 33/64/50 20/54/41
f 34/65/51 19/53/40 18/41/29
f 17/38/28 20/56/41 33/66/50
f 50/67/52 49/68/53 108/69/54
f 54/70/55 111/71/56 108/72/54
f 56/73/57 87/74/58 90/75/59
f 52/12/10 53/76/60 110/77/61
f 53/76/60 50/67/52 109/78/62
f 42/79/14 41/80/13 46/81/63
f 54/70/55 51/18/16 106/17/15
f 46/82/63 41/19/13 51/18/16
f 38/83/64 50/67/52 53/76/60
f 45/84/65 53/76/60 52/12/10
f 37/85/66 46/82/63 54/70/55
f 38/83/64 37/86/66 49/68/53
f 71/87/67 55/88/68 58/89/69
f 89/90/70 88/91/71 57/92/72
f 90/75/59 89/90/70 58/89/69
f 57/93/72 88/94/71 87/74/58
f 37/95/66 38/96/64 77/97/73
f 59/98/74 45/99/65 78/100/75
f 78/101/75 46/102/63 37/95/66
f 38/96/64 45/99/65 59/98/74
f 64/103/76 93/104/77 67/105/78
f 91/106/79 68/107/80 66/108/81
f 68/109/80 93/104/77 64/103/76
f 65/110/82 67/105/78 91/106/79
f 60/111/83 59/98/74 69/112/84
f 94/113/85 62/114/86 61/115/87
f 69/112/84 59/98/74 62/116/86
f 61/115/87 60/111/83 92/117/88
f 99/118/89 102/119/90 101/120/91
f 57/93/72 56/73/57 72/121/92
f 74/122/93 58/89/69 57/92/72
f 72/121/92 56/73/57 55/88/68
f 75/123/94 78/101/75 77/97/73
f 77/97/73 38/96/64 60/111/83
f 78/100/75 45/99/65 46/81/63
f 62/114/86 75/123/94 76/124/95
f 76/124/95 60/111/83 61/115/87
f 59/98/74 75/125/94 62/116/86
f 44/126/96 8/127/96 7/128/96
f 103/1/1 10/3/3 104/13/11
f 12/4/4 103/6/1 107/129/97
f 82/7/5 14/9/7 13/27/21
f 105/10/8 52/12/10 112/130/98
f 104/13/11 11/11/9 105/10/8
f 6/14/12 42/16/14 5/37/18
f 106/17/15 12/4/4 107/129/97
f 51/18/16 6/20/12 12/4/4
f 2/21/17 11/11/9 10/3/3
f 5/22/18 52/12/10 11/11/9
f 12/4/4 1/24/19 9/5/2
f 9/2/2 2/21/17 10/3/3
f 16/26/20 29/28/22 32/63/49
f 81/29/23 15/30/24 80/131/25
f 82/7/5 16/26/20 81/29/23
f 79/8/6 15/32/24 14/9/7
f 36/36/27 17/38/28 33/66/50
f 1/33/19 36/40/27 35/34/26
f 2/35/17 17/38/28 5/37/18
f 25/42/30 22/44/32 23/50/37
f 83/45/33 24/47/35 26/132/36
f 26/48/36 22/44/32 85/43/31
f 83/45/33 23/50/37 21/46/34
f 18/41/29 27/52/39 17/38/28
f 19/53/40 86/55/42 28/57/43
f 20/56/41 27/52/39 86/133/42
f 19/53/40 84/51/38 18/41/29
f 97/58/44 95/60/46 96/134/99
f 15/32/24 30/62/48 14/9/7
f 15/30/24 32/63/49 31/135/47
f 13/27/21 30/62/48 29/28/22
f 35/34/26 33/64/50 34/65/51
f 35/34/26 18/41/29 2/35/17
f 34/65/51 20/54/41 19/53/40
f 50/67/52 108/69/54 109/78/62
f 54/70/55 108/72/54 49/136/53
f 56/73/57 90/75/59 55/88/68
f 52/12/10 110/77/61 112/130/98
f 53/76/60 109/78/62 110/77/61
f 42/79/14 46/81/63 45/99/65
f 54/70/55 106/17/15 111/71/56
f 46/82/63 51/18/16 54/70/55
f 38/83/64 53/76/60 45/84/65
f 45/84/65 52/12/10 42/23/14
f 37/85/66 54/70/55 49/136/53
f 38/83/64 49/68/53 50/67/52
f 71/87/67 58/89/69 74/122/93
f 89/90/70 57/92/72 58/89/69
f 90/75/59 58/89/69 55/88/68
f 57/93/72 87/74/58 56/73/57
f 59/98/74 78/100/75 75/125/94
f 78/101/75 37/95/66 77/97/73
f 38/96/64 59/98/74 60/111/83
f 64/103/76 67/105/78 65/110/82
f 91/106/79 66/108/81 63/137/100
f 68/109/80 64/103/76 66/138/81
f 65/110/82 91/106/79 63/137/100
f 60/111/83 69/112/84 92/117/88
f 94/113/85 61/115/87 70/139/101
f 69/112/84 62/116/86 94/140/85
f 61/115/87 92/117/88 70/139/101
f 99/118/89 101/120/91 100/141/102
f 57/93/72 72/121/92 73/142/103
f 74/122/93 57/92/72 73/143/103
f 72/121/92 55/88/68 71/87/67
f 75/123/94 77/97/73 76/124/95
f 77/97/73 60/111/83 76/124/95
f 62/114/86 76/124/95 61/115/87
f 7/128/96 8/127/96 3/144/96
f 3/144/96 8/127/96 4/145/96
f 8/127/96 44/126/96 43/146/96
f 43/146/96 44/126/96 48/147/96
f 48/147/96 39/148/96 40/149/96
f 44/126/96 47/150/96 48/147/96
f 39/148/96 48/147/96 47/150/96
