# Blender v2.83.2 OBJ File: 'zombie_male_no_mirror.blend'
# www.blender.org
# o Zombie.LowerBody_Zombie.002
v 0.323384 0.385371 0.168826
v 0.495091 0.374488 0.208701
v 0.483265 0.631699 0.173712
v 0.333064 0.613409 0.130424
v 0.564269 0.360506 0.058941
v 0.332915 0.368915 0.001976
v 0.545451 0.635567 0.100684
v 0.337556 0.609417 0.020300
v 0.309023 0.451283 0.154194
v 0.493634 0.472171 0.206755
v 0.562529 0.476556 0.107040
v 0.320501 0.446250 0.016819
v -0.182853 -0.030616 0.155521
v -0.168313 0.024884 0.320443
v 0.005165 0.193373 0.252512
v 0.018746 0.176991 0.126142
v 0.353744 -0.001708 0.122580
v 0.334580 0.033226 0.262769
v 0.222686 0.162217 0.237973
v 0.207598 0.133389 0.096205
v -0.008720 0.040534 0.168652
v 0.041336 0.114685 0.255860
v -0.002012 0.070825 0.263998
v 0.050376 0.100328 0.157558
v 0.015304 0.042824 0.314113
v 0.001506 0.149464 0.113037
v -0.002603 -0.015326 0.158713
v 0.018835 0.184420 0.274866
v -0.212486 -0.002596 0.148703
v -0.197946 0.052904 0.313625
v -0.024469 0.221394 0.245695
v -0.010887 0.205012 0.119325
v 0.256086 0.144231 0.085140
v 0.251163 0.167334 0.227228
v 0.312008 0.327886 0.198857
v 0.295556 0.307313 0.046937
v 0.410214 0.360474 -0.183250
v 0.583649 0.380078 -0.157593
v 0.568481 0.629077 -0.120863
v 0.418279 0.610787 -0.164151
v 0.343116 0.357176 -0.024012
v 0.580147 0.385921 0.044206
v 0.350412 0.609022 -0.024143
v 0.563774 0.635003 0.037347
v 0.601037 0.383349 0.007291
v 0.356140 0.357074 -0.033733
v 0.582096 0.634440 -0.025989
v 0.363269 0.608626 -0.068586
v 0.408933 0.447408 -0.194526
v 0.592814 0.469835 -0.142402
v 0.333358 0.445855 -0.027624
v 0.580851 0.475993 0.043703
v 0.599174 0.475429 -0.019634
v 0.346214 0.445459 -0.072067
v 0.071569 -0.052082 -0.107629
v 0.106512 0.016917 -0.264183
v 0.245557 0.197158 -0.157989
v 0.239945 0.172819 -0.032298
v 0.607255 0.003539 -0.053475
v 0.573282 0.008524 -0.194860
v 0.473087 0.139666 -0.173210
v 0.468008 0.124280 -0.028662
v 0.235975 0.037822 -0.086539
v 0.290718 0.123201 -0.159496
v 0.254723 0.075753 -0.177440
v 0.285047 0.102508 -0.062075
v 0.248979 0.037052 -0.221225
v 0.263822 0.160631 -0.030170
v 0.239444 -0.005980 -0.060263
v 0.269927 0.180213 -0.195367
v 0.038153 -0.027937 -0.104446
v 0.073095 0.041062 -0.260999
v 0.212141 0.221303 -0.154806
v 0.206529 0.196964 -0.029114
v 0.460876 0.084919 -0.024328
v 0.440122 0.088400 -0.167337
v 0.413777 0.262196 -0.158909
v 0.406666 0.254312 -0.011046
v -0.002012 0.070825 0.263998
v 0.041336 0.114685 0.255860
v 0.050376 0.100328 0.157558
v -0.008720 0.040534 0.168652
v -0.002603 -0.015326 0.158713
v 0.015304 0.042824 0.314113
v 0.018835 0.184420 0.274866
v 0.001506 0.149464 0.113037
v 0.254723 0.075753 -0.177440
v 0.290718 0.123201 -0.159496
v 0.285047 0.102508 -0.062075
v 0.235975 0.037822 -0.086539
v 0.239444 -0.005980 -0.060263
v 0.248979 0.037052 -0.221225
v 0.269927 0.180213 -0.195367
v 0.263822 0.160631 -0.030170
v -0.212486 -0.002596 0.148703
v -0.197946 0.052904 0.313625
v -0.024469 0.221394 0.245695
v -0.010887 0.205012 0.119325
v 0.038153 -0.027937 -0.104446
v 0.073095 0.041062 -0.260999
v 0.212141 0.221303 -0.154806
v 0.206529 0.196964 -0.029114
v -0.094647 0.956719 0.000000
v -0.094647 0.956719 0.000000
v -0.094647 0.956719 0.000000
v -0.094647 0.956719 0.000000
v -0.094647 0.956719 0.000000
v 0.333064 0.613409 0.130424
v 0.483265 0.631699 0.173712
v 0.545451 0.635567 0.100684
v 0.350412 0.609022 -0.024143
v 0.337556 0.609417 0.020300
v 0.418279 0.610787 -0.164151
v 0.568481 0.629077 -0.120863
v 0.582096 0.634440 -0.025989
v 0.363269 0.608626 -0.068586
v 0.563774 0.635003 0.037347
vt 0.395761 0.101522
vt 0.408526 0.038155
vt 0.335667 0.041133
vt 0.582204 0.238536
vt 0.638912 0.237943
vt 0.629168 0.169732
vt 0.080257 0.773527
vt 0.125758 0.753251
vt 0.099668 0.690279
vt 0.292036 0.108753
vt 0.289537 0.043994
vt 0.263741 0.044349
vt 0.333871 0.106564
vt 0.751990 0.327083
vt 0.813546 0.327083
vt 0.813546 0.316705
vt 0.563178 0.238522
vt 0.582753 0.170133
vt 0.563169 0.275358
vt 0.572408 0.275358
vt 0.337403 0.006858
vt 0.272456 0.009250
vt 0.263741 0.009251
vt 0.641109 0.274976
vt 0.407096 0.003946
vt 0.030448 0.814903
vt 0.050414 0.707019
vt 0.035698 0.696573
vt 0.068037 0.812942
vt 0.036771 0.867236
vt 0.153001 0.769236
vt 0.187282 0.741636
vt 0.932325 0.316705
vt 0.932325 0.299347
vt 0.873312 0.316705
vt 0.813546 0.140151
vt 0.751990 0.152422
vt 0.997481 0.316705
vt 0.997481 0.299347
vt 0.873312 0.140151
vt 0.873312 0.019868
vt 0.932325 0.019868
vt 0.932325 0.002464
vt 0.751990 0.019868
vt 0.813546 0.019868
vt 0.813546 0.002464
vt 0.997481 0.019868
vt 0.997481 0.002464
vt 0.873312 0.002464
vt 0.873312 0.019868
vt 0.813546 0.019868
vt 0.932325 0.140151
vt 0.997481 0.140151
vt 0.997481 0.019868
vt 0.751990 0.140151
vt 0.932325 0.019868
vt 0.064821 0.575619
vt 0.013384 0.581260
vt 0.035698 0.696573
vt 0.196509 0.725977
vt 0.101138 0.670323
vt 0.013384 0.814644
vt 0.019196 0.869111
vt 0.997481 0.152422
vt 0.932325 0.152422
vt 0.751990 0.299347
vt 0.751990 0.316705
vt 0.191814 0.041133
vt 0.118955 0.038155
vt 0.131720 0.101521
vt 0.544152 0.238527
vt 0.543635 0.170124
vt 0.497220 0.169701
vt 0.415863 0.688103
vt 0.389773 0.751076
vt 0.435274 0.771351
vt 0.237944 0.043994
vt 0.235445 0.108753
vt 0.263741 0.109349
vt 0.193610 0.106564
vt 0.935925 0.667301
vt 0.997481 0.667301
vt 0.997481 0.657071
vt 0.563194 0.170087
vt 0.553931 0.275354
vt 0.190078 0.006858
vt 0.255025 0.009250
vt 0.485229 0.274940
vt 0.120385 0.003946
vt 0.479833 0.694397
vt 0.465118 0.704843
vt 0.485083 0.812727
vt 0.447494 0.810766
vt 0.441459 0.854864
vt 0.478761 0.865060
vt 0.328249 0.739461
vt 0.362530 0.767061
vt 0.817147 0.657071
vt 0.876160 0.657071
vt 0.817147 0.632600
vt 0.935925 0.657071
vt 0.997481 0.632600
vt 0.997481 0.499505
vt 0.751990 0.657071
vt 0.935925 0.486741
vt 0.817147 0.354721
vt 0.876160 0.354721
vt 0.876160 0.338625
vt 0.935925 0.354721
vt 0.997481 0.354721
vt 0.997481 0.338625
vt 0.751990 0.354721
vt 0.817147 0.338625
vt 0.935925 0.338625
vt 0.876160 0.486741
vt 0.935925 0.354721
vt 0.751990 0.354721
vt 0.751990 0.486741
vt 0.817147 0.486741
vt 0.997481 0.486741
vt 0.876160 0.354721
vt 0.479833 0.694397
vt 0.502147 0.579084
vt 0.450711 0.573443
vt 0.414393 0.668148
vt 0.496335 0.866935
vt 0.751990 0.499505
vt 0.751990 0.632600
vt 0.817147 0.499505
vt 0.003764 0.323504
vt 0.052091 0.332115
vt 0.052066 0.325311
vt 0.052041 0.318507
vt 0.100353 0.323149
vt 0.606649 0.547912
vt 0.605601 0.598316
vt 0.585208 0.547823
vt 0.074073 0.857040
vt 0.751990 0.002464
vt 0.751990 0.019868
vt 0.101138 0.670323
vt 0.487444 0.237907
vt 0.502147 0.812468
vt 0.751990 0.338625
vt 0.817147 0.354721
vt 0.997481 0.354721
vt 0.414393 0.668148
vt 0.319022 0.723801
vt 0.566508 0.547227
vt 0.567853 0.598325
vt 0.547291 0.558060
vt 0.546798 0.587643
vt 0.583985 0.598280
vt 0.627922 0.557375
vt 0.626688 0.586270
vn -0.7976 0.1883 0.5730
vn -0.8538 0.0558 0.5175
vn 0.3341 0.1265 0.9340
vn -0.9865 -0.0141 -0.1628
vn 0.3335 -0.7369 -0.5879
vn 0.3524 -0.3890 0.8511
vn -0.1005 -0.5445 0.8327
vn 0.8743 0.1128 0.4722
vn 0.8993 0.0278 0.4364
vn 0.9536 0.0734 0.2918
vn 0.3216 0.1845 0.9287
vn -0.5908 -0.7509 -0.2950
vn 0.7873 -0.5588 0.2604
vn 0.7940 -0.5766 -0.1923
vn -0.9547 -0.0266 -0.2963
vn -0.9814 0.1060 -0.1599
vn -0.8134 -0.4796 -0.3291
vn 0.5043 -0.0937 0.8584
vn -0.7712 0.2375 0.5906
vn 0.6865 0.2654 -0.6770
vn -0.1597 -0.9059 -0.3920
vn -0.5044 -0.6669 -0.5484
vn 0.7284 0.0287 -0.6845
vn 0.6171 0.5104 0.5989
vn 0.6290 0.3193 0.7088
vn -0.6485 0.3651 0.6679
vn 0.4574 -0.7839 -0.4198
vn -0.4209 0.1365 -0.8968
vn -0.7358 0.0161 -0.6770
vn 0.4348 -0.4992 0.7495
vn -0.9785 0.1045 0.1775
vn -0.9272 -0.3439 -0.1486
vn -0.9739 -0.1057 -0.2008
vn -0.8304 -0.1973 0.5210
vn -0.9911 -0.1323 0.0100
vn -0.9995 -0.0132 0.0304
vn -0.7855 -0.1062 0.6097
vn -0.8995 0.1837 0.3963
vn 0.1459 -0.4454 0.8833
vn -0.0396 -0.8950 -0.4442
vn 0.0981 0.8386 0.5358
vn -0.1513 0.4698 -0.8697
vn -0.0247 0.5248 -0.8509
vn 0.1845 0.8361 0.5166
vn -0.7193 0.6749 -0.1644
vn -0.7191 0.6750 -0.1648
vn -0.7194 0.6749 -0.1640
vn 0.4816 0.6519 0.5857
vn -0.4342 -0.2485 0.8658
vn 0.5455 0.3974 -0.7378
vn -0.3155 0.6914 0.6499
vn 0.7950 0.1010 -0.5981
vn -0.4136 0.0495 -0.9091
vn -0.3695 0.1783 -0.9119
vn -0.9326 -0.0466 -0.3578
vn -0.9147 0.1039 -0.3904
vn 0.1023 -0.4877 -0.8669
vn 0.5308 -0.2844 -0.7983
vn 0.3158 -0.7399 0.5940
vn 0.9939 0.0751 0.0808
vn 0.9918 0.1091 0.0657
vn 0.9546 0.1135 0.2752
vn 0.7700 0.1742 -0.6138
vn -0.7656 -0.6380 -0.0827
vn -0.9550 0.1057 -0.2772
vn 0.7042 0.0070 -0.7099
vn 0.8781 -0.2391 0.4145
vn -0.4703 -0.1962 -0.8604
vn -0.5066 -0.7558 0.4148
vn -0.1153 -0.9447 0.3069
vn 0.5298 0.2845 0.7989
vn 0.5973 0.0537 0.8002
vn 0.6955 0.4364 -0.5708
vn 0.6435 0.6163 -0.4539
vn -0.6655 -0.2097 -0.7163
vn -0.6754 -0.2372 0.6982
vn -0.3223 -0.8836 0.3395
vn 0.6560 -0.6179 0.4334
vn -0.9701 -0.1122 0.2152
vn -0.9874 0.1478 -0.0567
vn -0.9757 0.2083 0.0676
vn -0.9896 0.1254 0.0707
vn -0.9191 -0.1646 -0.3581
vn -0.8844 0.0282 -0.4659
vn -0.9378 -0.1169 0.3269
vn -0.9611 0.1131 0.2520
vn 0.4976 -0.5343 -0.6833
vn -0.0494 -0.8548 0.5166
vn 0.1034 0.5922 0.7991
vn 0.7418 0.1980 0.6406
vn 0.7582 0.5382 -0.3680
vn 0.0406 -0.5395 -0.8409
vn -0.8104 0.5810 0.0755
vn -0.8103 0.5810 0.0763
vn -0.8103 0.5810 0.0759
vn -0.2535 -0.2269 -0.9403
vn 0.4922 0.7413 -0.4563
vn -0.0792 -0.8122 -0.5780
vn -0.0984 0.9951 0.0000
vn 0.0000 0.0000 1.0000
vn -0.1093 0.9932 -0.0404
vn -0.7195 0.6749 -0.1637
vn 0.3663 0.3960 0.8420
vn 0.2188 0.7668 -0.6034
vn -0.8104 0.5809 0.0751
# s 1
f 108/1/1 9/2/2 10/3/3
f 12/4/4 9/5/2 108/6/1
f 82/7/5 79/8/6 14/9/7
f 110/10/8 11/11/9 52/12/10
f 109/13/11 10/3/3 11/11/9
f 41/14/12 42/15/13 5/16/14
f 51/17/15 12/4/4 112/18/16
f 51/17/15 41/19/12 6/20/17
f 2/21/18 5/22/14 11/11/9
f 11/11/9 5/22/14 42/23/13
f 12/4/4 6/20/17 1/24/19
f 1/25/19 2/21/18 10/3/3
f 16/26/20 13/27/21 29/28/22
f 81/29/23 16/26/20 15/30/24
f 82/7/5 13/27/21 16/26/20
f 79/8/6 80/31/25 15/32/24
f 1/33/19 35/34/26 2/35/18
f 5/16/14 17/36/27 33/37/28
f 1/33/19 6/38/17 36/39/29
f 2/35/18 18/40/30 17/36/27
f 25/41/31 85/42/32 22/43/33
f 26/44/34 83/45/35 21/46/36
f 85/42/32 26/47/34 24/48/37
f 83/45/35 25/41/31 23/49/38
f 18/40/30 84/50/39 27/51/40
f 19/52/41 20/53/42 86/54/43
f 20/55/42 17/36/27 27/51/40
f 19/52/41 28/56/44 84/50/39
f 97/57/45 98/58/46 95/59/47
f 15/32/24 31/60/48 30/61/49
f 16/26/20 32/62/50 31/63/48
f 13/27/21 14/9/7 30/61/49
f 35/34/26 36/39/29 33/64/28
f 35/34/26 34/65/51 18/40/30
f 36/66/29 6/67/17 5/16/14
f 34/65/51 33/64/28 20/53/42
f 34/65/51 19/52/41 18/40/30
f 17/36/27 20/55/42 33/37/28
f 50/68/52 49/69/53 113/70/54
f 54/71/55 116/72/56 113/73/54
f 56/74/57 87/75/58 90/76/59
f 53/77/60 115/78/61 117/79/62
f 53/77/60 50/68/52 114/80/63
f 42/81/13 41/82/12 46/83/64
f 54/71/55 51/17/15 111/84/65
f 46/85/64 41/19/12 51/17/15
f 38/86/66 50/68/52 53/77/60
f 45/87/67 53/77/60 52/12/10
f 37/88/68 46/85/64 54/71/55
f 38/86/66 37/89/68 49/69/53
f 71/90/69 55/91/70 58/92/71
f 89/93/72 88/94/73 57/95/74
f 90/76/59 89/93/72 58/92/71
f 57/96/74 88/97/73 87/75/58
f 37/98/68 38/99/66 77/100/75
f 45/101/67 78/102/76 75/103/77
f 46/104/64 37/98/68 77/100/75
f 38/99/66 45/101/67 59/105/78
f 93/106/79 67/107/80 65/108/81
f 91/109/82 68/110/83 66/111/84
f 68/112/83 93/106/79 64/113/85
f 67/107/80 91/109/82 63/114/86
f 60/115/87 59/105/78 69/116/88
f 94/117/89 62/118/90 61/119/91
f 69/116/88 59/105/78 62/120/90
f 61/119/91 60/115/87 92/121/92
f 99/122/93 102/123/94 101/124/95
f 57/96/74 56/74/57 72/125/96
f 58/92/71 57/95/74 73/126/97
f 72/125/96 56/74/57 55/91/70
f 75/127/77 78/128/76 77/100/75
f 76/129/98 77/100/75 38/99/66
f 78/102/76 45/101/67 46/83/64
f 62/118/90 75/127/77 76/129/98
f 76/129/98 60/115/87 61/119/91
f 59/105/78 75/103/77 62/120/90
f 105/130/99 104/131/100 107/132/100
f 103/133/100 107/132/100 106/134/99
f 107/132/100 103/133/100 105/130/99
f 107/132/100 104/131/100 106/134/99
f 47/135/101 48/136/101 44/137/101
f 108/1/1 10/3/3 109/13/11
f 12/4/4 108/6/1 112/18/16
f 82/7/5 14/9/7 13/27/21
f 110/10/8 52/12/10 117/79/62
f 109/13/11 11/11/9 110/10/8
f 41/14/12 5/16/14 6/67/17
f 51/17/15 112/18/16 111/84/65
f 51/17/15 6/20/17 12/4/4
f 2/21/18 11/11/9 10/3/3
f 11/11/9 42/23/13 52/12/10
f 12/4/4 1/24/19 9/5/2
f 1/25/19 10/3/3 9/2/2
f 16/26/20 29/28/22 32/62/50
f 81/29/23 15/30/24 80/138/25
f 82/7/5 16/26/20 81/29/23
f 79/8/6 15/32/24 14/9/7
f 5/16/14 33/37/28 36/66/29
f 1/33/19 36/39/29 35/34/26
f 2/35/18 17/36/27 5/16/14
f 25/41/31 22/43/33 23/49/38
f 26/44/34 21/46/36 24/139/37
f 85/42/32 24/48/37 22/43/33
f 83/45/35 23/49/38 21/46/36
f 18/40/30 27/51/40 17/36/27
f 19/52/41 86/54/43 28/56/44
f 20/55/42 27/51/40 86/140/43
f 19/52/41 84/50/39 18/40/30
f 97/57/45 95/59/47 96/141/102
f 15/32/24 30/61/49 14/9/7
f 16/26/20 31/63/48 15/30/24
f 13/27/21 30/61/49 29/28/22
f 35/34/26 33/64/28 34/65/51
f 35/34/26 18/40/30 2/35/18
f 34/65/51 20/53/42 19/52/41
f 50/68/52 113/70/54 114/80/63
f 54/71/55 113/73/54 49/142/53
f 56/74/57 90/76/59 55/91/70
f 53/77/60 117/79/62 52/12/10
f 53/77/60 114/80/63 115/78/61
f 42/81/13 46/83/64 45/101/67
f 54/71/55 111/84/65 116/72/56
f 46/85/64 51/17/15 54/71/55
f 38/86/66 53/77/60 45/87/67
f 45/87/67 52/12/10 42/23/13
f 37/88/68 54/71/55 49/142/53
f 38/86/66 49/69/53 50/68/52
f 71/90/69 58/92/71 74/143/103
f 89/93/72 57/95/74 58/92/71
f 90/76/59 58/92/71 55/91/70
f 57/96/74 87/75/58 56/74/57
f 45/101/67 75/103/77 59/105/78
f 46/104/64 77/100/75 78/128/76
f 38/99/66 59/105/78 60/115/87
f 93/106/79 65/108/81 64/113/85
f 91/109/82 66/111/84 63/114/86
f 68/112/83 64/113/85 66/144/84
f 67/107/80 63/114/86 65/108/81
f 60/115/87 69/116/88 92/121/92
f 94/117/89 61/119/91 70/145/104
f 69/116/88 62/120/90 94/146/89
f 61/119/91 92/121/92 70/145/104
f 99/122/93 101/124/95 100/147/105
f 57/96/74 72/125/96 73/148/97
f 58/92/71 73/126/97 74/143/103
f 72/125/96 55/91/70 71/90/69
f 75/127/77 77/100/75 76/129/98
f 76/129/98 38/99/66 60/115/87
f 62/118/90 76/129/98 61/119/91
f 7/149/101 8/150/101 3/151/101
f 3/151/101 8/150/101 4/152/101
f 8/150/101 44/137/101 43/153/101
f 7/149/101 44/137/101 8/150/101
f 43/153/101 44/137/101 48/136/101
f 48/136/101 39/154/101 40/155/101
f 47/135/101 39/154/101 48/136/101
