# Blender v2.91.0 OBJ File: 'zombie_male_no_mirror.blend'
# www.blender.org
# o Zombie.LowerBody_Zombie.002
v 0.130907 0.580255 0.125229
v 0.292573 0.581820 0.210740
v 0.294023 0.831348 0.181129
v 0.167777 0.820333 0.087806
v 0.403649 0.570405 0.085158
v 0.192371 0.567051 -0.035147
v 0.377902 0.832739 0.134466
v 0.210277 0.816779 -0.013902
v 0.129584 0.659017 0.098438
v 0.285619 0.672097 0.212003
v 0.385045 0.673070 0.142917
v 0.188731 0.654608 -0.026658
v -0.004994 -0.122392 0.136123
v -0.064229 -0.074858 0.293358
v -0.168482 0.131835 0.195859
v -0.140611 0.126520 0.070890
v 0.283404 0.190914 0.104883
v 0.239559 0.215826 0.241904
v 0.079974 0.276101 0.207189
v 0.091577 0.248494 0.064852
v -0.021634 0.065261 0.128112
v -0.082976 0.143706 0.203562
v -0.054676 0.090606 0.219322
v -0.060215 0.137653 0.106626
v -0.042457 0.065391 0.267749
v -0.094582 0.157075 0.065582
v -0.017395 0.011584 0.111775
v -0.108779 0.190405 0.228058
v -0.040076 -0.143148 0.129182
v -0.099310 -0.095613 0.286417
v -0.203563 0.111079 0.188918
v -0.175692 0.105765 0.063949
v 0.146680 0.311871 0.055260
v 0.123529 0.325832 0.196391
v 0.143617 0.495201 0.174652
v 0.149696 0.474915 0.021926
v 0.329548 0.557093 -0.181124
v 0.490886 0.585544 -0.110879
v 0.476567 0.826475 -0.065238
v 0.350320 0.815460 -0.158561
v 0.220451 0.564816 -0.058970
v 0.419793 0.582168 0.088175
v 0.237818 0.816044 -0.051072
v 0.417151 0.831691 0.081494
v 0.465521 0.589954 0.056913
v 0.235293 0.555808 -0.053665
v 0.456400 0.830643 0.028523
v 0.265359 0.815309 -0.088242
v 0.345078 0.652735 -0.193865
v 0.499727 0.667040 -0.081484
v 0.216272 0.653872 -0.063828
v 0.424294 0.672023 0.089945
v 0.463543 0.670975 0.036974
v 0.243813 0.653137 -0.100998
v 0.298055 -0.126432 -0.086482
v 0.276250 -0.065741 -0.248754
v 0.167321 0.142611 -0.160320
v 0.167986 0.128176 -0.032988
v 0.592276 0.242752 -0.013962
v 0.565873 0.238793 -0.157514
v 0.398911 0.282437 -0.149055
v 0.393141 0.266989 -0.004539
v 0.292145 0.061203 -0.068792
v 0.253123 0.148251 -0.149469
v 0.280641 0.094088 -0.162811
v 0.254630 0.135044 -0.050603
v 0.298012 0.059686 -0.206119
v 0.214339 0.163198 -0.020975
v 0.305273 0.020181 -0.044137
v 0.219877 0.182574 -0.186216
v 0.261044 -0.144770 -0.088368
v 0.239239 -0.084079 -0.250639
v 0.130310 0.124273 -0.162206
v 0.130975 0.109838 -0.034874
v 0.411066 0.293036 0.002998
v 0.407168 0.285814 -0.140777
v 0.342966 0.443613 -0.136848
v 0.317156 0.437263 0.007659
v -0.054676 0.090606 0.219322
v -0.082976 0.143706 0.203562
v -0.060215 0.137653 0.106626
v -0.021634 0.065261 0.128112
v -0.017395 0.011584 0.111775
v -0.042457 0.065391 0.267749
v -0.108779 0.190405 0.228058
v -0.094582 0.157075 0.065582
v 0.280641 0.094088 -0.162811
v 0.253123 0.148251 -0.149469
v 0.254630 0.135044 -0.050603
v 0.292145 0.061203 -0.068792
v 0.305273 0.020181 -0.044137
v 0.298012 0.059686 -0.206119
v 0.219877 0.182574 -0.186216
v 0.214339 0.163198 -0.020975
v -0.040076 -0.143148 0.129182
v -0.099310 -0.095613 0.286417
v -0.203563 0.111079 0.188918
v -0.175692 0.105765 0.063949
v 0.261044 -0.144770 -0.088368
v 0.239239 -0.084079 -0.250639
v 0.130310 0.124273 -0.162206
v 0.130975 0.109838 -0.034874
v 0.167777 0.820333 0.087806
v 0.294023 0.831348 0.181129
v 0.377902 0.832739 0.134466
v 0.237818 0.816044 -0.051072
v 0.210277 0.816779 -0.013902
v 0.350320 0.815460 -0.158561
v 0.476567 0.826475 -0.065238
v 0.456400 0.830643 0.028523
v 0.265359 0.815309 -0.088242
v 0.417151 0.831691 0.081494
vt 0.395761 0.101522
vt 0.408526 0.038155
vt 0.335667 0.041133
vt 0.582204 0.238536
vt 0.638912 0.237943
vt 0.629168 0.169732
vt 0.080257 0.773527
vt 0.125758 0.753251
vt 0.099668 0.690279
vt 0.292036 0.108753
vt 0.289537 0.043994
vt 0.263741 0.044349
vt 0.333871 0.106564
vt 0.751990 0.316705
vt 0.751990 0.327083
vt 0.813546 0.327083
vt 0.563194 0.170087
vt 0.563178 0.238522
vt 0.563169 0.275358
vt 0.572408 0.275358
vt 0.337403 0.006858
vt 0.272456 0.009250
vt 0.263741 0.009251
vt 0.641109 0.274976
vt 0.407096 0.003946
vt 0.030448 0.814903
vt 0.050414 0.707019
vt 0.035698 0.696573
vt 0.068037 0.812942
vt 0.036771 0.867236
vt 0.153001 0.769236
vt 0.187282 0.741636
vt 0.932325 0.316705
vt 0.932325 0.299347
vt 0.873312 0.316705
vt 0.751990 0.299347
vt 0.813546 0.316705
vt 0.813546 0.140151
vt 0.997481 0.316705
vt 0.997481 0.299347
vt 0.873312 0.140151
vt 0.873312 0.019868
vt 0.932325 0.019868
vt 0.932325 0.002464
vt 0.813546 0.019868
vt 0.813546 0.002464
vt 0.751990 0.002464
vt 0.997481 0.019868
vt 0.997481 0.002464
vt 0.873312 0.002464
vt 0.873312 0.019868
vt 0.813546 0.019868
vt 0.932325 0.140151
vt 0.997481 0.140151
vt 0.997481 0.019868
vt 0.751990 0.140151
vt 0.932325 0.019868
vt 0.064821 0.575619
vt 0.013384 0.581260
vt 0.035698 0.696573
vt 0.196509 0.725977
vt 0.101138 0.670323
vt 0.013384 0.814644
vt 0.997481 0.152422
vt 0.932325 0.152422
vt 0.751990 0.152422
vt 0.191814 0.041133
vt 0.118955 0.038155
vt 0.131720 0.101521
vt 0.544152 0.238527
vt 0.543635 0.170124
vt 0.497220 0.169701
vt 0.415863 0.688103
vt 0.389773 0.751076
vt 0.435274 0.771351
vt 0.237944 0.043994
vt 0.235445 0.108753
vt 0.193610 0.106564
vt 0.935925 0.667301
vt 0.997481 0.667301
vt 0.997481 0.657071
vt 0.553931 0.275354
vt 0.190078 0.006858
vt 0.255025 0.009250
vt 0.485229 0.274940
vt 0.120385 0.003946
vt 0.479833 0.694397
vt 0.465118 0.704843
vt 0.485083 0.812727
vt 0.447494 0.810766
vt 0.441459 0.854864
vt 0.478761 0.865060
vt 0.328249 0.739461
vt 0.362530 0.767061
vt 0.817147 0.657071
vt 0.876160 0.657071
vt 0.817147 0.632600
vt 0.935925 0.486741
vt 0.935925 0.657071
vt 0.997481 0.632600
vt 0.751990 0.632600
vt 0.751990 0.657071
vt 0.817147 0.338625
vt 0.817147 0.354721
vt 0.876160 0.354721
vt 0.935925 0.354721
vt 0.997481 0.354721
vt 0.997481 0.338625
vt 0.751990 0.354721
vt 0.876160 0.338625
vt 0.876160 0.486741
vt 0.935925 0.354721
vt 0.751990 0.354721
vt 0.751990 0.486741
vt 0.817147 0.486741
vt 0.997481 0.486741
vt 0.876160 0.354721
vt 0.479833 0.694397
vt 0.502147 0.579084
vt 0.450711 0.573443
vt 0.414393 0.668148
vt 0.502147 0.812468
vt 0.751990 0.499505
vt 0.817147 0.499505
vt 0.997481 0.499505
vt 0.585208 0.547823
vt 0.567853 0.598325
vt 0.566508 0.547227
vt 0.582753 0.170133
vt 0.263741 0.109349
vt 0.074073 0.857040
vt 0.751990 0.019868
vt 0.751990 0.019868
vt 0.101138 0.670323
vt 0.019196 0.869111
vt 0.487444 0.237907
vt 0.935925 0.338625
vt 0.751990 0.338625
vt 0.817147 0.354721
vt 0.997481 0.354721
vt 0.414393 0.668148
vt 0.319022 0.723801
vt 0.496335 0.866935
vt 0.547291 0.558060
vt 0.546798 0.587643
vt 0.583985 0.598280
vt 0.605601 0.598316
vt 0.627922 0.557375
vt 0.626688 0.586270
vt 0.606649 0.547912
vn -0.9386 0.2235 0.2629
vn -0.9739 0.1089 0.1989
vn -0.0367 0.0888 0.9954
vn -0.8661 0.0735 -0.4944
vn 0.8395 0.0403 -0.5419
vn 0.4203 0.3127 0.8518
vn 0.4344 -0.1652 0.8854
vn 0.6582 0.0691 0.7497
vn 0.7055 -0.0370 0.7077
vn 0.7711 0.0103 0.6366
vn -0.0158 0.1635 0.9864
vn -0.5845 -0.4519 -0.6739
vn -0.1810 -0.6558 -0.7329
vn 0.2489 -0.6180 0.7457
vn -0.7927 0.1517 -0.5904
vn -0.7801 0.0237 -0.6252
vn 0.2071 -0.0121 0.9782
vn 0.8644 -0.4913 -0.1068
vn -0.9272 0.1625 0.3375
vn -0.0038 0.6578 -0.7532
vn 0.8405 -0.4570 -0.2910
vn 0.5201 -0.7320 -0.4401
vn 0.2346 0.6280 -0.7420
vn -0.3408 0.7989 0.4955
vn -0.1624 0.7664 0.6214
vn -0.7902 0.1442 0.5956
vn -0.6190 -0.1851 -0.7632
vn 0.7493 -0.5463 -0.3743
vn 0.5118 -0.2850 0.8104
vn -0.8921 -0.4516 -0.0096
vn -0.8743 -0.4854 0.0044
vn -0.8540 -0.5202 -0.0059
vn -0.9749 -0.1915 0.1133
vn -0.9760 -0.1301 0.1743
vn -0.7168 -0.6259 0.3073
vn -0.7576 -0.6063 0.2419
vn -0.9048 -0.4241 -0.0387
vn 0.2817 -0.3403 0.8972
vn 0.4381 -0.7815 -0.4442
vn -0.4326 0.7073 0.5590
vn -0.3187 0.3304 -0.8884
vn -0.2291 0.4683 -0.8533
vn -0.3032 0.7956 0.5244
vn -0.8466 -0.5052 -0.1669
vn -0.8466 -0.5051 -0.1673
vn -0.8467 -0.5053 -0.1665
vn -0.5150 0.7099 0.4803
vn 0.0508 -0.3928 0.9182
vn -0.1676 0.5557 -0.8143
vn -0.4614 0.0302 -0.8867
vn -0.6977 0.4028 0.5924
vn 0.9628 0.0597 -0.2636
vn -0.0689 0.0759 -0.9947
vn -0.0211 0.2018 -0.9792
vn -0.7579 -0.0039 -0.6523
vn -0.7156 0.1487 -0.6825
vn 0.5988 -0.1485 -0.7870
vn 0.6086 0.3265 -0.7232
vn 0.7081 -0.0551 0.7039
vn 0.9113 0.0734 0.4051
vn 0.9101 0.0624 0.4097
vn 0.9427 0.1428 -0.3014
vn -0.8253 -0.5611 0.0630
vn 0.8275 0.1167 -0.5491
vn 0.7238 -0.1244 0.6787
vn -0.2681 -0.3159 -0.9101
vn 0.3684 -0.7934 0.4845
vn 0.7299 -0.5362 0.4240
vn -0.1194 0.6129 0.7810
vn 0.1136 0.5655 0.8168
vn 0.0208 0.8102 -0.5857
vn -0.1776 0.8494 -0.4970
vn -0.6319 -0.2669 -0.7276
vn 0.8079 -0.2936 0.5110
vn -0.7265 -0.3673 0.5807
vn -0.7478 -0.6627 0.0386
vn -0.7439 -0.6663 0.0507
vn -0.8949 -0.4458 0.0202
vn -0.9125 -0.3704 -0.1734
vn -0.6894 -0.6623 -0.2935
vn -0.7189 -0.5730 -0.3936
vn -0.9061 -0.4225 -0.0200
vn 0.7024 -0.2249 -0.6753
vn 0.4405 -0.7020 0.5595
vn -0.3669 0.5172 0.7732
vn -0.4699 0.3601 0.8059
vn -0.2136 0.7920 -0.5719
vn 0.4287 -0.3876 -0.8160
vn -0.8933 -0.4469 -0.0468
vn -0.8935 -0.4468 -0.0460
vn -0.8934 -0.4468 -0.0464
vn 0.2168 -0.3436 -0.9137
vn -0.2987 0.5205 0.7999
vn -0.4765 -0.0978 0.8737
vn -0.4747 0.6307 -0.6138
vn -0.0468 0.9974 -0.0544
vn -0.8584 0.1526 -0.4897
vn 0.8023 0.0673 0.5931
vn -0.8467 -0.5054 -0.1661
vn -0.9309 -0.3533 -0.0922
vn -0.2767 0.7291 -0.6259
vn -0.8933 -0.4470 -0.0471
vn -0.3565 0.7733 -0.5242
# s 1
f 103/1/1 9/2/2 10/3/3
f 12/4/4 9/5/2 103/6/1
f 82/7/5 79/8/6 14/9/7
f 105/10/8 11/11/9 52/12/10
f 104/13/11 10/3/3 11/11/9
f 6/14/12 41/15/13 42/16/14
f 106/17/15 51/18/16 12/4/4
f 51/18/16 41/19/13 6/20/12
f 2/21/17 5/22/18 11/11/9
f 5/22/18 42/23/14 52/12/10
f 12/4/4 6/20/12 1/24/19
f 9/2/2 1/25/19 2/21/17
f 16/26/20 13/27/21 29/28/22
f 81/29/23 16/26/20 15/30/24
f 82/7/5 13/27/21 16/26/20
f 79/8/6 80/31/25 15/32/24
f 1/33/19 35/34/26 2/35/17
f 36/36/27 5/37/18 17/38/28
f 1/33/19 6/39/12 36/40/27
f 2/35/17 18/41/29 17/38/28
f 25/42/30 85/43/31 22/44/32
f 83/45/33 21/46/34 24/47/35
f 26/48/36 24/49/35 22/44/32
f 83/45/33 25/42/30 23/50/37
f 18/41/29 84/51/38 27/52/39
f 19/53/40 20/54/41 86/55/42
f 20/56/41 17/38/28 27/52/39
f 19/53/40 28/57/43 84/51/38
f 97/58/44 98/59/45 95/60/46
f 15/32/24 31/61/47 30/62/48
f 15/30/24 16/26/20 32/63/49
f 13/27/21 14/9/7 30/62/48
f 35/34/26 36/40/27 33/64/50
f 35/34/26 34/65/51 18/41/29
f 36/36/27 6/14/12 5/37/18
f 34/65/51 33/64/50 20/54/41
f 34/65/51 19/53/40 18/41/29
f 17/38/28 20/56/41 33/66/50
f 50/67/52 49/68/53 108/69/54
f 54/70/55 111/71/56 108/72/54
f 56/73/57 87/74/58 90/75/59
f 52/12/10 53/76/60 110/77/61
f 53/76/60 50/67/52 109/78/62
f 42/79/14 41/80/13 46/81/63
f 54/70/55 51/18/16 106/17/15
f 46/82/63 41/19/13 51/18/16
f 38/83/64 50/67/52 53/76/60
f 45/84/65 53/76/60 52/12/10
f 37/85/66 46/82/63 54/70/55
f 38/83/64 37/86/66 49/68/53
f 71/87/67 55/88/68 58/89/69
f 89/90/70 88/91/71 57/92/72
f 90/75/59 89/90/70 58/89/69
f 57/93/72 88/94/71 87/74/58
f 37/95/66 38/96/64 77/97/73
f 59/98/74 45/99/65 78/100/75
f 78/101/75 46/102/63 37/95/66
f 38/96/64 45/99/65 59/98/74
f 64/103/76 93/104/77 67/105/78
f 91/106/79 68/107/80 66/108/81
f 68/109/80 93/104/77 64/103/76
f 65/110/82 67/105/78 91/106/79
f 60/111/83 59/98/74 69/112/84
f 94/113/85 62/114/86 61/115/87
f 69/112/84 59/98/74 62/116/86
f 61/115/87 60/111/83 92/117/88
f 99/118/89 102/119/90 101/120/91
f 57/93/72 56/73/57 72/121/92
f 74/122/93 58/89/69 57/92/72
f 72/121/92 56/73/57 55/88/68
f 75/123/94 78/101/75 77/97/73
f 77/97/73 38/96/64 60/111/83
f 78/100/75 45/99/65 46/81/63
f 62/114/86 75/123/94 76/124/95
f 76/124/95 60/111/83 61/115/87
f 59/98/74 75/125/94 62/116/86
f 44/126/96 8/127/96 7/128/96
f 103/1/1 10/3/3 104/13/11
f 12/4/4 103/6/1 107/129/97
f 82/7/5 14/9/7 13/27/21
f 105/10/8 52/12/10 112/130/98
f 104/13/11 11/11/9 105/10/8
f 6/14/12 42/16/14 5/37/18
f 106/17/15 12/4/4 107/129/97
f 51/18/16 6/20/12 12/4/4
f 2/21/17 11/11/9 10/3/3
f 5/22/18 52/12/10 11/11/9
f 12/4/4 1/24/19 9/5/2
f 9/2/2 2/21/17 10/3/3
f 16/26/20 29/28/22 32/63/49
f 81/29/23 15/30/24 80/131/25
f 82/7/5 16/26/20 81/29/23
f 79/8/6 15/32/24 14/9/7
f 36/36/27 17/38/28 33/66/50
f 1/33/19 36/40/27 35/34/26
f 2/35/17 17/38/28 5/37/18
f 25/42/30 22/44/32 23/50/37
f 83/45/33 24/47/35 26/132/36
f 26/48/36 22/44/32 85/43/31
f 83/45/33 23/50/37 21/46/34
f 18/41/29 27/52/39 17/38/28
f 19/53/40 86/55/42 28/57/43
f 20/56/41 27/52/39 86/133/42
f 19/53/40 84/51/38 18/41/29
f 97/58/44 95/60/46 96/134/99
f 15/32/24 30/62/48 14/9/7
f 15/30/24 32/63/49 31/135/47
f 13/27/21 30/62/48 29/28/22
f 35/34/26 33/64/50 34/65/51
f 35/34/26 18/41/29 2/35/17
f 34/65/51 20/54/41 19/53/40
f 50/67/52 108/69/54 109/78/62
f 54/70/55 108/72/54 49/136/53
f 56/73/57 90/75/59 55/88/68
f 52/12/10 110/77/61 112/130/98
f 53/76/60 109/78/62 110/77/61
f 42/79/14 46/81/63 45/99/65
f 54/70/55 106/17/15 111/71/56
f 46/82/63 51/18/16 54/70/55
f 38/83/64 53/76/60 45/84/65
f 45/84/65 52/12/10 42/23/14
f 37/85/66 54/70/55 49/136/53
f 38/83/64 49/68/53 50/67/52
f 71/87/67 58/89/69 74/122/93
f 89/90/70 57/92/72 58/89/69
f 90/75/59 58/89/69 55/88/68
f 57/93/72 87/74/58 56/73/57
f 59/98/74 78/100/75 75/125/94
f 78/101/75 37/95/66 77/97/73
f 38/96/64 59/98/74 60/111/83
f 64/103/76 67/105/78 65/110/82
f 91/106/79 66/108/81 63/137/100
f 68/109/80 64/103/76 66/138/81
f 65/110/82 91/106/79 63/137/100
f 60/111/83 69/112/84 92/117/88
f 94/113/85 61/115/87 70/139/101
f 69/112/84 62/116/86 94/140/85
f 61/115/87 92/117/88 70/139/101
f 99/118/89 101/120/91 100/141/102
f 57/93/72 72/121/92 73/142/103
f 74/122/93 57/92/72 73/143/103
f 72/121/92 55/88/68 71/87/67
f 75/123/94 77/97/73 76/124/95
f 77/97/73 60/111/83 76/124/95
f 62/114/86 76/124/95 61/115/87
f 7/128/96 8/127/96 3/144/96
f 3/144/96 8/127/96 4/145/96
f 8/127/96 44/126/96 43/146/96
f 43/146/96 44/126/96 48/147/96
f 48/147/96 39/148/96 40/149/96
f 44/126/96 47/150/96 48/147/96
f 39/148/96 48/147/96 47/150/96
