# Blender v2.91.0 OBJ File: 'zombie_male_no_mirror.blend'
# www.blender.org
# o Zombie.LowerBody_Zombie.002
v 0.587565 0.364562 0.171918
v 0.715127 0.237830 0.138891
v 0.883729 0.426923 0.152461
v 0.765273 0.530398 0.157856
v 0.731949 0.241496 -0.028328
v 0.560061 0.410053 0.008623
v 0.919423 0.411964 0.064613
v 0.752461 0.561461 0.052812
v 0.632049 0.431618 0.165153
v 0.777302 0.304102 0.157132
v 0.814257 0.293404 0.042268
v 0.620377 0.466415 0.031693
v -0.099550 0.038893 0.154729
v -0.051199 -0.017436 0.312780
v 0.123760 0.162202 0.327526
v 0.113535 0.226743 0.217290
v 0.380732 0.047432 0.004701
v 0.414975 0.013847 0.142601
v 0.334079 0.145538 0.222156
v 0.278734 0.197185 0.097954
v 0.080420 0.092015 0.173313
v 0.151956 0.098868 0.275515
v 0.106532 0.057983 0.263940
v 0.142347 0.147755 0.189093
v 0.133063 0.011118 0.289834
v 0.090638 0.208868 0.184537
v 0.065904 0.045326 0.140935
v 0.154316 0.151642 0.327299
v -0.126980 0.064415 0.172217
v -0.078629 0.008087 0.330268
v 0.096330 0.187724 0.345014
v 0.086105 0.252265 0.234778
v 0.374071 0.226379 0.066127
v 0.414790 0.172282 0.192746
v 0.548079 0.281855 0.188488
v 0.490199 0.347350 0.061470
v 0.582343 0.413769 -0.186785
v 0.725228 0.318489 -0.232907
v 0.904092 0.466053 -0.151013
v 0.785636 0.569528 -0.145619
v 0.564963 0.406018 -0.026567
v 0.751901 0.242695 -0.035261
v 0.755534 0.567365 0.007026
v 0.923801 0.420378 -0.000637
v 0.774804 0.241013 -0.090097
v 0.570596 0.388480 -0.031541
v 0.928179 0.428791 -0.065887
v 0.758606 0.573268 -0.038760
v 0.655090 0.478202 -0.194229
v 0.800027 0.353093 -0.202333
v 0.623449 0.472318 -0.014093
v 0.818635 0.301817 -0.022982
v 0.823013 0.310231 -0.088232
v 0.626521 0.478222 -0.059879
v 0.068337 -0.039232 -0.149100
v 0.049028 0.112628 -0.233098
v 0.241396 0.211958 -0.105713
v 0.281585 0.117737 -0.028712
v 0.572583 -0.013355 -0.288220
v 0.498216 0.078901 -0.373530
v 0.441973 0.181971 -0.247138
v 0.483913 0.090656 -0.141976
v 0.238658 0.041583 -0.145076
v 0.271965 0.159826 -0.167835
v 0.225751 0.127857 -0.194505
v 0.301661 0.085166 -0.108716
v 0.199591 0.116335 -0.247626
v 0.302864 0.117105 -0.044331
v 0.237685 -0.007207 -0.142095
v 0.255596 0.223151 -0.163621
v 0.042367 -0.026251 -0.119660
v 0.023058 0.125609 -0.203658
v 0.215425 0.224939 -0.076273
v 0.255614 0.130718 0.000728
v 0.511352 0.093113 -0.144847
v 0.447251 0.172992 -0.246127
v 0.524776 0.306873 -0.174999
v 0.561316 0.231277 -0.055329
v 0.106532 0.057983 0.263940
v 0.151956 0.098868 0.275515
v 0.142347 0.147755 0.189093
v 0.080420 0.092015 0.173313
v 0.065904 0.045326 0.140935
v 0.133063 0.011118 0.289834
v 0.154316 0.151642 0.327299
v 0.090638 0.208868 0.184537
v 0.225751 0.127857 -0.194505
v 0.271965 0.159826 -0.167835
v 0.301661 0.085166 -0.108716
v 0.238658 0.041583 -0.145076
v 0.237685 -0.007207 -0.142095
v 0.199591 0.116335 -0.247626
v 0.255596 0.223151 -0.163621
v 0.302864 0.117105 -0.044331
v -0.126980 0.064415 0.172217
v -0.078629 0.008087 0.330268
v 0.096330 0.187724 0.345014
v 0.086105 0.252265 0.234778
v 0.042367 -0.026251 -0.119660
v 0.023058 0.125609 -0.203658
v 0.215425 0.224939 -0.076273
v 0.255614 0.130718 0.000728
v 0.765273 0.530398 0.157856
v 0.883729 0.426923 0.152461
v 0.919423 0.411964 0.064613
v 0.755534 0.567365 0.007026
v 0.752461 0.561461 0.052812
v 0.785636 0.569528 -0.145619
v 0.904092 0.466053 -0.151013
v 0.928179 0.428791 -0.065887
v 0.758606 0.573268 -0.038760
v 0.923801 0.420378 -0.000637
vt 0.395761 0.101522
vt 0.408526 0.038155
vt 0.335667 0.041133
vt 0.582204 0.238536
vt 0.638912 0.237943
vt 0.629168 0.169732
vt 0.080257 0.773527
vt 0.125758 0.753251
vt 0.099668 0.690279
vt 0.292036 0.108753
vt 0.289537 0.043994
vt 0.263741 0.044349
vt 0.333871 0.106564
vt 0.751990 0.316705
vt 0.751990 0.327083
vt 0.813546 0.327083
vt 0.563194 0.170087
vt 0.563178 0.238522
vt 0.563169 0.275358
vt 0.572408 0.275358
vt 0.337403 0.006858
vt 0.272456 0.009250
vt 0.263741 0.009251
vt 0.641109 0.274976
vt 0.407096 0.003946
vt 0.030448 0.814903
vt 0.050414 0.707019
vt 0.035698 0.696573
vt 0.068037 0.812942
vt 0.036771 0.867236
vt 0.153001 0.769236
vt 0.187282 0.741636
vt 0.932325 0.316705
vt 0.932325 0.299347
vt 0.873312 0.316705
vt 0.751990 0.299347
vt 0.813546 0.316705
vt 0.813546 0.140151
vt 0.997481 0.316705
vt 0.997481 0.299347
vt 0.873312 0.140151
vt 0.873312 0.019868
vt 0.932325 0.019868
vt 0.932325 0.002464
vt 0.813546 0.019868
vt 0.813546 0.002464
vt 0.751990 0.002464
vt 0.997481 0.019868
vt 0.997481 0.002464
vt 0.873312 0.002464
vt 0.873312 0.019868
vt 0.813546 0.019868
vt 0.932325 0.140151
vt 0.997481 0.140151
vt 0.997481 0.019868
vt 0.751990 0.140151
vt 0.932325 0.019868
vt 0.064821 0.575619
vt 0.013384 0.581260
vt 0.035698 0.696573
vt 0.196509 0.725977
vt 0.101138 0.670323
vt 0.013384 0.814644
vt 0.997481 0.152422
vt 0.932325 0.152422
vt 0.751990 0.152422
vt 0.191814 0.041133
vt 0.118955 0.038155
vt 0.131720 0.101521
vt 0.544152 0.238527
vt 0.543635 0.170124
vt 0.497220 0.169701
vt 0.415863 0.688103
vt 0.389773 0.751076
vt 0.435274 0.771351
vt 0.237944 0.043994
vt 0.235445 0.108753
vt 0.193610 0.106564
vt 0.935925 0.667301
vt 0.997481 0.667301
vt 0.997481 0.657071
vt 0.553931 0.275354
vt 0.190078 0.006858
vt 0.255025 0.009250
vt 0.485229 0.274940
vt 0.120385 0.003946
vt 0.479833 0.694397
vt 0.465118 0.704843
vt 0.485083 0.812727
vt 0.447494 0.810766
vt 0.441459 0.854864
vt 0.478761 0.865060
vt 0.328249 0.739461
vt 0.362530 0.767061
vt 0.817147 0.657071
vt 0.876160 0.657071
vt 0.817147 0.632600
vt 0.935925 0.486741
vt 0.935925 0.657071
vt 0.997481 0.632600
vt 0.751990 0.632600
vt 0.751990 0.657071
vt 0.817147 0.338625
vt 0.817147 0.354721
vt 0.876160 0.354721
vt 0.935925 0.354721
vt 0.997481 0.354721
vt 0.997481 0.338625
vt 0.751990 0.354721
vt 0.876160 0.338625
vt 0.876160 0.486741
vt 0.935925 0.354721
vt 0.751990 0.354721
vt 0.751990 0.486741
vt 0.817147 0.486741
vt 0.997481 0.486741
vt 0.876160 0.354721
vt 0.479833 0.694397
vt 0.502147 0.579084
vt 0.450711 0.573443
vt 0.414393 0.668148
vt 0.502147 0.812468
vt 0.751990 0.499505
vt 0.817147 0.499505
vt 0.997481 0.499505
vt 0.585208 0.547823
vt 0.567853 0.598325
vt 0.566508 0.547227
vt 0.582753 0.170133
vt 0.263741 0.109349
vt 0.074073 0.857040
vt 0.751990 0.019868
vt 0.751990 0.019868
vt 0.101138 0.670323
vt 0.019196 0.869111
vt 0.487444 0.237907
vt 0.935925 0.338625
vt 0.751990 0.338625
vt 0.817147 0.354721
vt 0.997481 0.354721
vt 0.414393 0.668148
vt 0.319022 0.723801
vt 0.496335 0.866935
vt 0.547291 0.558060
vt 0.546798 0.587643
vt 0.583985 0.598280
vt 0.605601 0.598316
vt 0.627922 0.557375
vt 0.626688 0.586270
vt 0.606649 0.547912
vn -0.3236 0.4712 0.8205
vn -0.4470 0.4431 0.7771
vn 0.3996 -0.4507 0.7982
vn -0.6573 0.7341 0.1704
vn 0.1516 -0.2152 -0.9647
vn 0.4542 -0.8177 0.3535
vn -0.0083 -0.9421 0.3352
vn 0.7198 -0.6716 0.1755
vn 0.6623 -0.7425 0.1003
vn 0.7113 -0.7028 0.0099
vn 0.4584 -0.4044 0.7914
vn -0.9158 0.3397 -0.2144
vn -0.8156 -0.0153 -0.5784
vn 0.0183 -0.9602 0.2787
vn -0.5896 0.8051 0.0642
vn -0.6880 0.7256 0.0078
vn 0.4425 -0.6469 0.6210
vn 0.1475 -0.7267 -0.6709
vn -0.3204 0.3945 0.8612
vn 0.5817 0.6423 -0.4991
vn -0.3145 -0.4823 -0.8176
vn -0.6556 -0.2071 -0.7261
vn 0.5979 0.4607 -0.6559
vn 0.7592 0.0555 0.6485
vn 0.7709 -0.1625 0.6158
vn -0.1724 0.2018 0.9641
vn -0.7308 0.6329 -0.2556
vn -0.0337 -0.5359 -0.8436
vn 0.3873 -0.8716 0.3002
vn -0.8592 0.0058 0.5116
vn -0.9761 -0.1285 0.1754
vn -0.9885 -0.0252 0.1492
vn -0.9286 0.0666 0.3652
vn -0.7927 0.4941 -0.3570
vn -0.7769 -0.5445 0.3160
vn -0.7333 -0.4353 0.5221
vn -0.7940 -0.0618 0.6047
vn 0.2639 -0.8495 0.4568
vn -0.3455 -0.5139 -0.7852
vn 0.3392 0.4069 0.8481
vn -0.2745 0.8626 -0.4248
vn -0.1332 0.8978 -0.4197
vn 0.4676 0.4256 0.7747
vn -0.6662 0.6148 0.4222
vn -0.6661 0.6151 0.4219
vn -0.6662 0.6145 0.4225
vn 0.6383 0.1718 0.7504
vn -0.3001 -0.7372 0.6053
vn 0.4462 0.7801 -0.4386
vn -0.5344 0.7486 -0.3924
vn 0.0168 0.3158 0.9487
vn 0.5358 -0.2934 -0.7917
vn -0.3460 0.6142 -0.7092
vn -0.2205 0.6718 -0.7071
vn -0.7030 0.7107 -0.0263
vn -0.5774 0.8146 -0.0549
vn -0.3082 0.1356 -0.9416
vn 0.1368 0.3135 -0.9396
vn 0.4173 -0.8984 -0.1367
vn 0.7607 -0.6003 -0.2469
vn 0.7479 -0.6176 -0.2432
vn 0.5708 -0.1988 -0.7967
vn -0.8419 -0.0031 0.5395
vn 0.3843 -0.0122 -0.9231
vn 0.6043 -0.7958 0.0383
vn -0.7255 0.3930 -0.5649
vn -0.4042 -0.9135 0.0462
vn -0.1147 -0.9490 -0.2934
vn 0.8309 -0.1746 0.5283
vn 0.8616 -0.3504 0.3672
vn 0.4729 0.7755 -0.4181
vn 0.4950 0.8433 -0.2091
vn -0.8353 0.5352 -0.1256
vn 0.4431 -0.8662 -0.2309
vn -0.4614 -0.2453 0.8526
vn -0.8921 -0.1867 0.4114
vn -0.8530 -0.2509 0.4576
vn -0.8616 0.1485 0.4853
vn -0.8450 0.1990 0.4962
vn -0.9997 0.0245 0.0077
vn -0.9669 0.2541 -0.0203
vn -0.8077 0.5191 0.2795
vn -0.0327 -0.0898 -0.9954
vn -0.0578 -0.9983 0.0033
vn 0.4846 0.0675 0.8721
vn 0.3303 0.0038 0.9438
vn 0.3888 0.9054 -0.1707
vn -0.3706 0.0125 -0.9287
vn -0.6311 0.3121 0.7101
vn -0.6307 0.3117 0.7107
vn -0.6309 0.3119 0.7104
vn -0.6258 0.3400 -0.7020
vn 0.7136 -0.1326 0.6879
vn 0.0049 -0.3707 0.9287
vn 0.3793 0.9240 -0.0485
vn 0.6550 0.7426 0.1397
vn -0.5933 0.7840 0.1825
vn 0.7509 -0.6595 -0.0346
vn -0.6663 0.6142 0.4227
vn -0.8115 0.0517 0.5820
vn 0.1434 0.9764 -0.1614
vn -0.6313 0.3123 0.7098
vn 0.3731 0.9244 -0.0785
# s 1
f 103/1/1 9/2/2 10/3/3
f 12/4/4 9/5/2 103/6/1
f 82/7/5 79/8/6 14/9/7
f 105/10/8 11/11/9 52/12/10
f 104/13/11 10/3/3 11/11/9
f 6/14/12 41/15/13 42/16/14
f 106/17/15 51/18/16 12/4/4
f 51/18/16 41/19/13 6/20/12
f 2/21/17 5/22/18 11/11/9
f 5/22/18 42/23/14 52/12/10
f 12/4/4 6/20/12 1/24/19
f 9/2/2 1/25/19 2/21/17
f 16/26/20 13/27/21 29/28/22
f 81/29/23 16/26/20 15/30/24
f 82/7/5 13/27/21 16/26/20
f 79/8/6 80/31/25 15/32/24
f 1/33/19 35/34/26 2/35/17
f 36/36/27 5/37/18 17/38/28
f 1/33/19 6/39/12 36/40/27
f 2/35/17 18/41/29 17/38/28
f 25/42/30 85/43/31 22/44/32
f 83/45/33 21/46/34 24/47/35
f 26/48/36 24/49/35 22/44/32
f 83/45/33 25/42/30 23/50/37
f 18/41/29 84/51/38 27/52/39
f 19/53/40 20/54/41 86/55/42
f 20/56/41 17/38/28 27/52/39
f 19/53/40 28/57/43 84/51/38
f 97/58/44 98/59/45 95/60/46
f 15/32/24 31/61/47 30/62/48
f 15/30/24 16/26/20 32/63/49
f 13/27/21 14/9/7 30/62/48
f 35/34/26 36/40/27 33/64/50
f 35/34/26 34/65/51 18/41/29
f 36/36/27 6/14/12 5/37/18
f 34/65/51 33/64/50 20/54/41
f 34/65/51 19/53/40 18/41/29
f 17/38/28 20/56/41 33/66/50
f 50/67/52 49/68/53 108/69/54
f 54/70/55 111/71/56 108/72/54
f 56/73/57 87/74/58 90/75/59
f 52/12/10 53/76/60 110/77/61
f 53/76/60 50/67/52 109/78/62
f 42/79/14 41/80/13 46/81/63
f 54/70/55 51/18/16 106/17/15
f 46/82/63 41/19/13 51/18/16
f 38/83/64 50/67/52 53/76/60
f 45/84/65 53/76/60 52/12/10
f 37/85/66 46/82/63 54/70/55
f 38/83/64 37/86/66 49/68/53
f 71/87/67 55/88/68 58/89/69
f 89/90/70 88/91/71 57/92/72
f 90/75/59 89/90/70 58/89/69
f 57/93/72 88/94/71 87/74/58
f 37/95/66 38/96/64 77/97/73
f 59/98/74 45/99/65 78/100/75
f 78/101/75 46/102/63 37/95/66
f 38/96/64 45/99/65 59/98/74
f 64/103/76 93/104/77 67/105/78
f 91/106/79 68/107/80 66/108/81
f 68/109/80 93/104/77 64/103/76
f 65/110/82 67/105/78 91/106/79
f 60/111/83 59/98/74 69/112/84
f 94/113/85 62/114/86 61/115/87
f 69/112/84 59/98/74 62/116/86
f 61/115/87 60/111/83 92/117/88
f 99/118/89 102/119/90 101/120/91
f 57/93/72 56/73/57 72/121/92
f 74/122/93 58/89/69 57/92/72
f 72/121/92 56/73/57 55/88/68
f 75/123/94 78/101/75 77/97/73
f 77/97/73 38/96/64 60/111/83
f 78/100/75 45/99/65 46/81/63
f 62/114/86 75/123/94 76/124/95
f 76/124/95 60/111/83 61/115/87
f 59/98/74 75/125/94 62/116/86
f 44/126/96 8/127/96 7/128/96
f 103/1/1 10/3/3 104/13/11
f 12/4/4 103/6/1 107/129/97
f 82/7/5 14/9/7 13/27/21
f 105/10/8 52/12/10 112/130/98
f 104/13/11 11/11/9 105/10/8
f 6/14/12 42/16/14 5/37/18
f 106/17/15 12/4/4 107/129/97
f 51/18/16 6/20/12 12/4/4
f 2/21/17 11/11/9 10/3/3
f 5/22/18 52/12/10 11/11/9
f 12/4/4 1/24/19 9/5/2
f 9/2/2 2/21/17 10/3/3
f 16/26/20 29/28/22 32/63/49
f 81/29/23 15/30/24 80/131/25
f 82/7/5 16/26/20 81/29/23
f 79/8/6 15/32/24 14/9/7
f 36/36/27 17/38/28 33/66/50
f 1/33/19 36/40/27 35/34/26
f 2/35/17 17/38/28 5/37/18
f 25/42/30 22/44/32 23/50/37
f 83/45/33 24/47/35 26/132/36
f 26/48/36 22/44/32 85/43/31
f 83/45/33 23/50/37 21/46/34
f 18/41/29 27/52/39 17/38/28
f 19/53/40 86/55/42 28/57/43
f 20/56/41 27/52/39 86/133/42
f 19/53/40 84/51/38 18/41/29
f 97/58/44 95/60/46 96/134/99
f 15/32/24 30/62/48 14/9/7
f 15/30/24 32/63/49 31/135/47
f 13/27/21 30/62/48 29/28/22
f 35/34/26 33/64/50 34/65/51
f 35/34/26 18/41/29 2/35/17
f 34/65/51 20/54/41 19/53/40
f 50/67/52 108/69/54 109/78/62
f 54/70/55 108/72/54 49/136/53
f 56/73/57 90/75/59 55/88/68
f 52/12/10 110/77/61 112/130/98
f 53/76/60 109/78/62 110/77/61
f 42/79/14 46/81/63 45/99/65
f 54/70/55 106/17/15 111/71/56
f 46/82/63 51/18/16 54/70/55
f 38/83/64 53/76/60 45/84/65
f 45/84/65 52/12/10 42/23/14
f 37/85/66 54/70/55 49/136/53
f 38/83/64 49/68/53 50/67/52
f 71/87/67 58/89/69 74/122/93
f 89/90/70 57/92/72 58/89/69
f 90/75/59 58/89/69 55/88/68
f 57/93/72 87/74/58 56/73/57
f 59/98/74 78/100/75 75/125/94
f 78/101/75 37/95/66 77/97/73
f 38/96/64 59/98/74 60/111/83
f 64/103/76 67/105/78 65/110/82
f 91/106/79 66/108/81 63/137/100
f 68/109/80 64/103/76 66/138/81
f 65/110/82 91/106/79 63/137/100
f 60/111/83 69/112/84 92/117/88
f 94/113/85 61/115/87 70/139/101
f 69/112/84 62/116/86 94/140/85
f 61/115/87 92/117/88 70/139/101
f 99/118/89 101/120/91 100/141/102
f 57/93/72 72/121/92 73/142/103
f 74/122/93 57/92/72 73/143/103
f 72/121/92 55/88/68 71/87/67
f 75/123/94 77/97/73 76/124/95
f 77/97/73 60/111/83 76/124/95
f 62/114/86 76/124/95 61/115/87
f 7/128/96 8/127/96 3/144/96
f 3/144/96 8/127/96 4/145/96
f 8/127/96 44/126/96 43/146/96
f 43/146/96 44/126/96 48/147/96
f 48/147/96 39/148/96 40/149/96
f 44/126/96 47/150/96 48/147/96
f 39/148/96 48/147/96 47/150/96
